<svg width="415" height="318" viewBox="0 0 415 318" fill="none" xmlns="http://www.w3.org/2000/svg">
<g clip-path="url(#clip0_111_167)">
<path d="M10.0882 100.13L1.61721 131.584C0.770109 134.583 3.38841 137.428 6.46875 136.967L47.2834 130.122C50.9798 129.507 52.2119 124.739 49.2086 122.432L16.8649 97.8225C14.4007 95.9768 10.8583 97.1303 10.0882 100.13Z" stroke="#2D4A65" stroke-width="3.5183" stroke-miterlimit="10"/>
<path d="M398.135 234.789L413.152 205.873C414.615 203.105 412.69 199.721 409.532 199.567L368.179 197.491C364.405 197.337 362.249 201.72 364.713 204.566L391.05 235.558C392.975 237.942 396.672 237.558 398.135 234.789Z" stroke="#2D4A65" stroke-width="3.5183" stroke-miterlimit="10"/>
<path d="M371.952 36.5296L358.09 20.7642C356.781 19.2261 354.317 19.6106 353.47 21.4563L342.535 45.7582C341.534 47.9884 343.69 50.2955 346 49.5265L370.797 41.067C372.645 40.2979 373.261 37.9908 371.952 36.5296Z" stroke="#2D4A65" stroke-width="3.5183" stroke-miterlimit="10"/>
<path d="M47.7454 86.979C49.7018 86.979 51.2878 85.3951 51.2878 83.4414C51.2878 81.4876 49.7018 79.9037 47.7454 79.9037C45.789 79.9037 44.203 81.4876 44.203 83.4414C44.203 85.3951 45.789 86.979 47.7454 86.979Z" fill="#F1CB31"/>
<path d="M13.0915 177.572C19.2159 177.572 24.1807 172.614 24.1807 166.498C24.1807 160.382 19.2159 155.424 13.0915 155.424C6.96703 155.424 2.0022 160.382 2.0022 166.498C2.0022 172.614 6.96703 177.572 13.0915 177.572Z" fill="#F1CB31"/>
<path d="M138.616 287.623C142.656 287.623 145.931 284.352 145.931 280.317C145.931 276.282 142.656 273.011 138.616 273.011C134.575 273.011 131.3 276.282 131.3 280.317C131.3 284.352 134.575 287.623 138.616 287.623Z" fill="#F1CB31"/>
<path d="M71.6181 146.888C75.6585 146.888 78.9339 143.617 78.9339 139.582C78.9339 135.547 75.6585 132.276 71.6181 132.276C67.5777 132.276 64.3022 135.547 64.3022 139.582C64.3022 143.617 67.5777 146.888 71.6181 146.888Z" fill="#F1CB31"/>
<path d="M367.486 183.033C369.527 183.033 371.182 181.38 371.182 179.341C371.182 177.303 369.527 175.65 367.486 175.65C365.444 175.65 363.789 177.303 363.789 179.341C363.789 181.38 365.444 183.033 367.486 183.033Z" fill="#F1CB31"/>
<path d="M389.664 21.4563C391.748 21.4563 393.437 19.7692 393.437 17.688C393.437 15.6068 391.748 13.9197 389.664 13.9197C387.58 13.9197 385.891 15.6068 385.891 17.688C385.891 19.7692 387.58 21.4563 389.664 21.4563Z" fill="#F1CB31"/>
<path d="M359.246 163.037C363.286 163.037 366.561 159.767 366.561 155.732C366.561 151.697 363.286 148.426 359.246 148.426C355.205 148.426 351.93 151.697 351.93 155.732C351.93 159.767 355.205 163.037 359.246 163.037Z" fill="#F1CB31"/>
<path d="M396.672 180.649C403.264 180.649 408.608 175.312 408.608 168.728C408.608 162.145 403.264 156.808 396.672 156.808C390.08 156.808 384.736 162.145 384.736 168.728C384.736 175.312 390.08 180.649 396.672 180.649Z" fill="#F1CB31"/>
<path d="M326.517 33.838C330.557 33.838 333.833 30.567 333.833 26.532C333.833 22.4971 330.557 19.2261 326.517 19.2261C322.477 19.2261 319.201 22.4971 319.201 26.532C319.201 30.567 322.477 33.838 326.517 33.838Z" fill="#F1CB31"/>
<path d="M375.803 104.359C383.118 104.359 389.048 98.4372 389.048 91.1318C389.048 83.8264 383.118 77.9042 375.803 77.9042C368.487 77.9042 362.557 83.8264 362.557 91.1318C362.557 98.4372 368.487 104.359 375.803 104.359Z" fill="#F1CB31"/>
<path d="M240.729 20.3028L30.1104 190.877C19.7142 199.336 22.4866 215.871 35.116 220.408L298.024 315.539C310.653 320.076 323.36 309.156 320.818 296.005L268.452 30.3004C265.988 17.688 250.817 12.1509 240.729 20.3028Z" stroke="#2D4A65" stroke-width="3.5183" stroke-miterlimit="10"/>
<path d="M159.639 254.323L337.298 249.171L171.575 292.006L159.639 254.323Z" fill="#3CE5E5"/>
<path d="M171.575 292.006L340.379 296.005L265.064 267.781L171.575 292.006Z" fill="#2AA0A0"/>
<path d="M52.366 45.8351L234.877 67.6759L150.937 0L52.366 45.8351Z" fill="#3CE5E5"/>
<path d="M150.937 0L90.1002 28.0701L0 1.53809L150.937 0Z" fill="#2AA0A0"/>
<path d="M337.298 249.17L99.2643 255.861L52.366 45.8351L369.488 83.2875L337.298 249.17Z" fill="#497AA5"/>
<path d="M356.714 91.0326C362.519 65.606 346.584 40.2941 321.123 34.4969C295.662 28.6996 270.316 44.6123 264.511 70.0389C258.706 95.4654 274.64 120.777 300.101 126.575C325.562 132.372 350.909 116.459 356.714 91.0326Z" fill="#258C8C"/>
<path d="M237.501 238.837L237.346 232.382L236.544 198.848C236.491 196.64 238.238 194.806 240.447 194.754L357.509 191.952C358.386 191.931 359.244 192.198 359.954 192.713L386.723 212.133C388.863 213.685 388.935 216.85 386.867 218.498L361.061 239.067C360.378 239.611 359.536 239.917 358.664 239.938L241.595 242.74C239.387 242.793 237.554 241.045 237.501 238.837Z" fill="#5DE9E9"/>
<path d="M150.707 137.202H126.327L124.723 146.33C126.06 145.209 127.691 144.328 129.615 143.687C131.54 143.047 133.598 142.727 135.79 142.727C140.442 142.727 143.917 144.061 146.216 146.73C148.568 149.346 149.745 152.789 149.745 157.059C149.745 158.607 149.584 160.182 149.263 161.783C148.194 167.975 145.574 172.859 141.404 176.436C137.287 179.959 132.101 181.72 125.846 181.72C119.858 181.72 115.207 180.386 111.892 177.717C108.631 174.995 107 171.365 107 166.827C107 165.546 107.107 164.372 107.321 163.304H122.718C122.558 164.639 122.852 165.787 123.601 166.747C124.403 167.708 125.686 168.189 127.45 168.189C129.268 168.189 130.738 167.601 131.861 166.427C132.984 165.199 133.732 163.545 134.106 161.463C134.213 160.715 134.267 160.155 134.267 159.781C134.267 158.287 133.839 157.139 132.984 156.338C132.128 155.484 130.925 155.057 129.375 155.057C127.985 155.057 126.782 155.404 125.766 156.098C124.75 156.739 124.055 157.539 123.681 158.5H108.363L114.538 123.35H153.193L150.707 137.202Z" fill="white"/>
<path d="M154.286 161.463C154.286 158.58 154.554 155.644 155.088 152.655C156.639 143.847 159.74 136.881 164.391 131.757C169.096 126.579 175.431 123.99 183.398 123.99C189.92 123.99 194.732 125.752 197.833 129.275C200.934 132.798 202.484 137.709 202.484 144.008C202.484 146.89 202.217 149.773 201.682 152.655C200.132 161.463 197.004 168.456 192.299 173.633C187.594 178.811 181.259 181.4 173.293 181.4C166.77 181.4 161.958 179.665 158.858 176.196C155.81 172.673 154.286 167.762 154.286 161.463ZM182.756 162.984C184.2 160.582 185.322 157.139 186.124 152.655C186.605 149.879 186.846 147.718 186.846 146.169C186.846 143.821 186.392 142.033 185.483 140.805C184.574 139.524 183.023 138.883 180.831 138.883C177.677 138.883 175.378 140.084 173.934 142.486C172.491 144.835 171.368 148.225 170.566 152.655C170.085 155.538 169.844 157.726 169.844 159.221C169.844 161.57 170.299 163.384 171.208 164.666C172.17 165.893 173.747 166.507 175.939 166.507C179.04 166.507 181.312 165.333 182.756 162.984Z" fill="white"/>
<path d="M239.935 123.99C243.517 123.99 246.35 124.924 248.435 126.793C250.574 128.608 251.643 131.277 251.643 134.8C251.643 135.44 251.536 136.508 251.322 138.002C250.521 142.433 248.623 145.849 245.629 148.251C242.635 150.653 239.106 151.854 235.043 151.854C231.461 151.854 228.6 150.947 226.462 149.132C224.323 147.317 223.254 144.702 223.254 141.285C223.254 140.164 223.361 139.07 223.575 138.002C224.377 133.518 226.248 130.076 229.188 127.673C232.182 125.218 235.764 123.99 239.935 123.99ZM280.915 124.791L240.416 181.64H225.339L265.838 124.791H280.915ZM233.92 138.002C233.813 138.75 233.76 139.23 233.76 139.444C233.76 140.458 234 141.259 234.481 141.846C234.962 142.38 235.657 142.646 236.566 142.646C237.689 142.646 238.651 142.246 239.453 141.445C240.255 140.645 240.79 139.497 241.057 138.002C241.111 137.682 241.138 137.228 241.138 136.641C241.138 134.346 240.148 133.198 238.17 133.198C237.101 133.198 236.192 133.625 235.444 134.479C234.695 135.28 234.187 136.454 233.92 138.002ZM271.291 154.497C274.873 154.497 277.707 155.404 279.792 157.219C281.931 159.034 283 161.65 283 165.066C283 166.24 282.893 167.361 282.679 168.429C281.877 172.913 280.006 176.382 277.065 178.838C274.125 181.24 270.57 182.441 266.399 182.441C262.817 182.441 259.957 181.534 257.818 179.719C255.68 177.85 254.611 175.155 254.611 171.632C254.611 170.991 254.717 169.923 254.931 168.429C255.733 163.945 257.631 160.502 260.625 158.1C263.619 155.698 267.175 154.497 271.291 154.497ZM265.196 168.429C265.09 169.176 265.036 169.657 265.036 169.87C265.036 170.938 265.277 171.765 265.758 172.352C266.292 172.939 267.014 173.233 267.923 173.233C269.206 173.233 270.276 172.673 271.131 171.552C272.04 170.431 272.494 168.883 272.494 166.908C272.494 165.893 272.254 165.119 271.773 164.586C271.291 163.998 270.596 163.705 269.687 163.705C268.565 163.705 267.602 164.132 266.8 164.986C265.998 165.787 265.464 166.934 265.196 168.429Z" fill="white"/>
<path d="M186.149 95V107.971C186.149 109.393 186.52 110.483 187.261 111.244C188.003 111.985 189.046 112.355 190.389 112.355C191.752 112.355 192.805 111.985 193.547 111.244C194.289 110.483 194.659 109.393 194.659 107.971V95H198.9V107.941C198.9 109.723 198.509 111.234 197.727 112.475C196.965 113.696 195.933 114.617 194.629 115.238C193.346 115.858 191.913 116.168 190.329 116.168C188.765 116.168 187.342 115.858 186.058 115.238C184.795 114.617 183.793 113.696 183.051 112.475C182.309 111.234 181.938 109.723 181.938 107.941V95H186.149Z" fill="white"/>
<path d="M207.178 101.726C207.719 100.965 208.461 100.335 209.404 99.8342C210.366 99.3138 211.459 99.0535 212.682 99.0535C214.105 99.0535 215.388 99.4038 216.531 100.104C217.694 100.805 218.606 101.806 219.268 103.107C219.949 104.388 220.29 105.879 220.29 107.581C220.29 109.282 219.949 110.794 219.268 112.115C218.606 113.416 217.694 114.427 216.531 115.148C215.388 115.868 214.105 116.228 212.682 116.228C211.459 116.228 210.376 115.978 209.434 115.478C208.511 114.977 207.759 114.347 207.178 113.586V123.885H202.968V99.3238H207.178V101.726ZM215.99 107.581C215.99 106.58 215.779 105.719 215.358 104.999C214.957 104.258 214.416 103.698 213.734 103.317C213.072 102.937 212.351 102.747 211.569 102.747C210.807 102.747 210.085 102.947 209.404 103.347C208.742 103.728 208.201 104.288 207.78 105.029C207.379 105.769 207.178 106.64 207.178 107.641C207.178 108.642 207.379 109.513 207.78 110.253C208.201 110.994 208.742 111.564 209.404 111.965C210.085 112.345 210.807 112.535 211.569 112.535C212.351 112.535 213.072 112.335 213.734 111.935C214.416 111.534 214.957 110.964 215.358 110.223C215.779 109.483 215.99 108.602 215.99 107.581Z" fill="white"/>
<path d="M228.252 102.777V110.824C228.252 111.384 228.382 111.795 228.643 112.055C228.923 112.295 229.384 112.415 230.026 112.415H231.981V115.958H229.334C225.786 115.958 224.011 114.237 224.011 110.794V102.777H222.026V99.3238H224.011V95.2102H228.252V99.3238H231.981V102.777H228.252Z" fill="white"/>
<path d="M242.407 116.228C240.803 116.228 239.36 115.878 238.077 115.178C236.793 114.457 235.781 113.446 235.039 112.145C234.317 110.844 233.956 109.342 233.956 107.641C233.956 105.94 234.327 104.438 235.069 103.137C235.831 101.836 236.864 100.835 238.167 100.134C239.47 99.4138 240.924 99.0535 242.527 99.0535C244.131 99.0535 245.585 99.4138 246.888 100.134C248.191 100.835 249.214 101.836 249.956 103.137C250.717 104.438 251.098 105.94 251.098 107.641C251.098 109.342 250.707 110.844 249.926 112.145C249.164 113.446 248.121 114.457 246.798 115.178C245.495 115.878 244.031 116.228 242.407 116.228ZM242.407 112.565C243.169 112.565 243.881 112.385 244.542 112.025C245.224 111.644 245.765 111.084 246.166 110.343C246.567 109.603 246.768 108.702 246.768 107.641C246.768 106.06 246.347 104.849 245.505 104.008C244.683 103.147 243.67 102.717 242.467 102.717C241.264 102.717 240.252 103.147 239.43 104.008C238.628 104.849 238.227 106.06 238.227 107.641C238.227 109.222 238.618 110.443 239.4 111.304C240.202 112.145 241.204 112.565 242.407 112.565Z" fill="white"/>
<path d="M183.597 210C181.633 210 179.828 209.54 178.184 208.619C176.54 207.698 175.237 206.427 174.275 204.805C173.312 203.164 172.831 201.312 172.831 199.251C172.831 197.209 173.312 195.377 174.275 193.756C175.237 192.114 176.54 190.833 178.184 189.913C179.828 188.992 181.633 188.531 183.597 188.531C185.582 188.531 187.387 188.992 189.011 189.913C190.655 190.833 191.948 192.114 192.89 193.756C193.853 195.377 194.334 197.209 194.334 199.251C194.334 201.312 193.853 203.164 192.89 204.805C191.948 206.427 190.655 207.698 189.011 208.619C187.367 209.54 185.562 210 183.597 210ZM183.597 206.247C184.86 206.247 185.973 205.966 186.936 205.406C187.898 204.826 188.65 204.005 189.191 202.944C189.732 201.883 190.003 200.652 190.003 199.251C190.003 197.849 189.732 196.628 189.191 195.587C188.65 194.527 187.898 193.716 186.936 193.155C185.973 192.595 184.86 192.315 183.597 192.315C182.334 192.315 181.212 192.595 180.229 193.155C179.267 193.716 178.515 194.527 177.974 195.587C177.432 196.628 177.162 197.849 177.162 199.251C177.162 200.652 177.432 201.883 177.974 202.944C178.515 204.005 179.267 204.826 180.229 205.406C181.212 205.966 182.334 206.247 183.597 206.247Z" fill="white"/>
<path d="M205.105 196.608H202.188V209.79H197.917V196.608H196.022V193.155H197.917V192.315C197.917 190.273 198.499 188.772 199.661 187.811C200.824 186.85 202.579 186.399 204.924 186.46V190.003C203.902 189.983 203.19 190.153 202.789 190.513C202.388 190.873 202.188 191.524 202.188 192.465V193.155H205.105V196.608Z" fill="white"/>
<path d="M215.472 196.608H212.555V209.79H208.284V196.608H206.39V193.155H208.284V192.315C208.284 190.273 208.866 188.772 210.029 187.811C211.191 186.85 212.946 186.399 215.291 186.46V190.003C214.269 189.983 213.557 190.153 213.156 190.513C212.755 190.873 212.555 191.524 212.555 192.465V193.155H215.472V196.608Z" fill="white"/>
</g>
<defs>
<clipPath id="clip0_111_167">
<rect width="415" height="318" fill="white"/>
</clipPath>
</defs>
</svg>
