<svg width="97" height="96" viewBox="0 0 97 96" fill="none" xmlns="http://www.w3.org/2000/svg">
<g clip-path="url(#clip0_552_2319)">
<path d="M95.565 49.105C95.565 45.8421 95.3005 42.5616 94.7361 39.3516H49.4609V57.8355H75.3879C74.312 63.7969 70.8551 69.0705 65.7931 72.4216V84.4149H81.2611C90.3444 76.0548 95.565 63.7087 95.565 49.105Z" fill="#4285F4"/>
<path d="M49.4565 96.0052C62.4023 96.0052 73.3198 91.7547 81.2743 84.4175L65.8063 72.4241C61.5028 75.3519 55.947 77.0098 49.4741 77.0098C36.9516 77.0098 26.334 68.5616 22.5243 57.2031H6.5625V69.5669C14.7109 85.7756 31.3077 96.0052 49.4565 96.0052Z" fill="#99AE9E"/>
<path d="M22.5111 57.2028C20.5004 51.2414 20.5004 44.7861 22.5111 38.8247V26.4609H6.56694C-0.241065 40.024 -0.241065 56.0035 6.56694 69.5666L22.5111 57.2028Z" fill="#FBBC04"/>
<path d="M49.4565 18.9986C56.2998 18.8928 62.9138 21.4679 67.8699 26.1947L81.5741 12.4905C72.8965 4.34202 61.3793 -0.137864 49.4565 0.00323466C31.3077 0.00323466 14.7109 10.2329 6.5625 26.4592L22.5066 38.823C26.2987 27.4469 36.934 18.9986 49.4565 18.9986Z" fill="#EA4335"/>
</g>
<defs>
<clipPath id="clip0_552_2319">
<rect width="96" height="96" fill="white" transform="translate(0.5)"/>
</clipPath>
</defs>
</svg>
