<svg width="205" height="128" viewBox="0 0 205 128" fill="none" xmlns="http://www.w3.org/2000/svg">
<g filter="url(#filter0_d_335_821)">
<path d="M4 0H193C197.418 0 201 3.58172 201 8V112C201 116.418 197.418 120 193 120H12C7.58172 120 4 116.418 4 112V0Z" fill="#F5F5F5" shape-rendering="crispEdges"/>
<g clip-path="url(#clip0_335_821)">
<path d="M71.8373 20.7822C71.732 20.886 71.5871 21.1585 71.4949 21.4051C71.4028 21.6387 71.2447 22.0539 71.1394 22.3135C70.6653 23.5723 70.5468 23.8838 70.3493 24.3899C70.2308 24.7013 70.0596 25.1555 69.9674 25.4021C69.8752 25.6487 69.6909 26.1159 69.5724 26.4403C69.4539 26.7647 69.2695 27.2449 69.1642 27.5045C69.0588 27.777 68.9008 28.2182 68.7955 28.4778C68.6901 28.7503 68.5189 29.2175 68.4004 29.516C68.137 30.2297 67.8473 30.9824 67.6103 31.5923C67.505 31.8649 67.3206 32.345 67.2021 32.6695C67.0836 32.9939 66.8992 33.4741 66.7939 33.7336C66.6885 34.0061 66.5305 34.4474 66.4252 34.7069C66.3198 34.9794 66.1486 35.4466 66.0301 35.7451C65.9116 36.0566 65.7404 36.5238 65.6351 36.7833C65.5297 37.0558 65.3454 37.536 65.2269 37.8604C65.1083 38.1849 64.924 38.6521 64.8318 38.8986C64.7396 39.1452 64.5553 39.6124 64.4368 39.9368C64.3182 40.2613 64.1339 40.7414 64.0285 41.001C63.7915 41.6239 63.5018 42.3766 63.2384 43.0774C63.1199 43.3888 62.9487 43.843 62.8566 44.0896C62.7644 44.3362 62.6064 44.7774 62.4879 45.0629C62.3825 45.3484 62.185 45.8415 62.0665 46.166C61.7768 46.9057 61.4871 47.6584 61.2764 48.2424C61.1842 48.4889 61.013 48.9431 60.8945 49.2416C60.776 49.5531 60.5916 50.0462 60.4731 50.3447C60.3546 50.6562 60.2097 51.0066 60.1439 51.1234C60.0781 51.2531 60.0254 51.4737 60.0254 51.6165C60.0254 51.876 60.1044 51.876 63.6862 51.876H67.3601L67.5181 51.5127C67.6103 51.318 67.9263 50.5523 68.216 49.7997C68.5057 49.047 68.8613 48.1385 69.0061 47.7882C69.151 47.4248 69.3222 46.9576 69.3749 46.75C69.5065 46.2958 69.6646 45.8805 70.56 43.6354C70.9287 42.701 71.2843 41.7666 71.3501 41.559C71.5344 40.9491 71.89 40.0147 71.9953 39.8719C72.0612 39.807 72.1402 39.5735 72.1929 39.3658C72.2587 39.0933 72.3245 39.0284 72.4299 39.1322C72.5747 39.275 72.5089 40.2613 71.9295 47.9179C71.811 49.4103 71.7451 50.9027 71.7715 51.2272L71.811 51.8112L75.5639 51.8501C77.6314 51.8631 79.4486 51.8501 79.6066 51.8112C79.7646 51.7722 79.9358 51.6165 79.9753 51.4478C80.0806 51.0974 80.7917 49.2286 81.0288 48.6966C81.1209 48.476 81.2263 48.1905 81.2658 48.0477C81.3053 47.905 81.4501 47.4897 81.595 47.1393C81.7267 46.7759 82.1612 45.6728 82.5299 44.6736C82.9118 43.6743 83.3069 42.688 83.4122 42.4934C83.5176 42.2857 83.5966 42.0392 83.5966 41.9483C83.5966 41.8445 83.6888 41.546 83.8073 41.2735C84.1365 40.5468 84.6369 39.3009 84.9792 38.3795C85.0714 38.133 85.2558 37.6658 85.3743 37.3413C85.4928 37.0169 85.6772 36.5497 85.7693 36.3031C85.8615 36.0566 86.0327 35.6024 86.1512 35.2909C86.2697 34.9924 86.4541 34.5123 86.5594 34.2268C86.6648 33.9413 86.8491 33.4741 86.9545 33.1886C87.0598 32.9031 87.2442 32.4359 87.3495 32.1504C87.4549 31.8649 87.6392 31.3977 87.7446 31.1122C87.8499 30.8267 88.0343 30.3595 88.1396 30.074C88.245 29.7885 88.4293 29.3213 88.5347 29.0358C88.64 28.7503 88.8244 28.2701 88.9429 27.9587C89.0614 27.6602 89.2326 27.206 89.3248 26.9594C89.5091 26.4663 89.7725 25.7655 90.1017 24.909C90.2202 24.6105 90.4046 24.1303 90.5099 23.8448C90.9181 22.7547 91.142 22.2097 91.3263 21.7555C91.4317 21.4959 91.4975 21.1455 91.4712 20.9768L91.4317 20.6654L88.2055 20.6264C86.4277 20.6005 84.7949 20.6264 84.571 20.6654C84.1365 20.7432 84.1496 20.6913 83.004 23.7151C82.8987 24.0006 82.7143 24.4677 82.609 24.7532C82.5036 25.0387 82.3324 25.493 82.2271 25.7525C82.1217 26.025 81.9505 26.4922 81.832 26.7907C81.7135 27.1022 81.5292 27.5953 81.4106 27.8938C81.0024 28.9579 80.8444 29.3602 80.4362 30.4633C79.6856 32.4359 79.6198 32.6046 79.4486 32.9939C79.3564 33.2015 79.2379 33.5 79.1984 33.6298C79.1457 33.7855 79.0667 33.8374 78.9877 33.7596C78.9087 33.6817 78.935 32.955 79.0535 31.761C79.1589 30.7229 79.251 29.4121 79.251 28.8411C79.251 28.2701 79.3432 26.8945 79.4354 25.7914C79.6593 23.3776 79.7383 20.9898 79.6066 20.7562C79.4486 20.5096 72.1007 20.5356 71.8373 20.7822ZM92.63 20.847C92.5115 20.9768 92.3535 21.2493 92.2876 21.457C92.235 21.6646 92.0506 22.1578 91.8926 22.5471C91.7346 22.9364 91.5634 23.4036 91.4975 23.5853C91.4317 23.767 91.2605 24.2341 91.1025 24.6235C90.9445 25.0128 90.7733 25.48 90.7074 25.6617C90.6416 25.8433 90.4704 26.3105 90.3124 26.6999C90.1544 27.0892 89.9832 27.5564 89.9173 27.7381C89.8515 27.9197 89.6803 28.3869 89.5223 28.7762C89.3643 29.1656 89.1931 29.6328 89.1272 29.8144C89.0614 29.9961 88.8902 30.4633 88.7322 30.8526C88.5742 31.242 88.403 31.7091 88.3371 31.8908C88.2713 32.0725 88.1001 32.5397 87.9421 32.929C87.7841 33.3183 87.6129 33.7855 87.5471 33.9672C87.4812 34.1489 87.31 34.6161 87.152 35.0054C86.994 35.3947 86.8228 35.8619 86.757 36.0436C86.6911 36.2253 86.5199 36.6925 86.3619 37.0818C86.2039 37.4711 86.0327 37.9383 85.9669 38.12C85.901 38.3017 85.7298 38.7689 85.5718 39.1582C85.1768 40.1704 84.9134 40.8582 84.7817 41.2346C84.7159 41.4162 84.5447 41.8834 84.3867 42.2728C84.2287 42.6621 84.0575 43.1293 83.9916 43.3109C83.9258 43.4926 83.7546 43.9598 83.5966 44.3491C83.4386 44.7385 83.2674 45.2057 83.2015 45.3873C83.1357 45.569 82.9645 46.0362 82.8065 46.4255C82.6485 46.8148 82.4773 47.282 82.4114 47.4637C82.3456 47.6454 82.1744 48.1126 82.0164 48.5019C81.8584 48.8912 81.6872 49.3584 81.6213 49.5401C81.5555 49.7218 81.3843 50.189 81.2263 50.5783C80.6864 51.9279 80.3704 51.8112 84.5447 51.8501L88.1923 51.876L88.4162 51.4608C88.5347 51.2401 88.6795 50.9027 88.7322 50.7211C88.798 50.5394 88.9692 50.0592 89.1272 49.6699C89.2853 49.2806 89.4564 48.8134 89.5223 48.6317C89.5881 48.45 89.7593 47.9828 89.9173 47.5935C90.0754 47.2042 90.2465 46.737 90.3124 46.5553C90.3782 46.3736 90.5494 45.9064 90.7074 45.5171C90.8655 45.1278 91.0366 44.6606 91.1025 44.4789C91.1683 44.2972 91.3395 43.83 91.4975 43.4407C91.6555 43.0514 91.8267 42.5842 91.8926 42.4025C91.9584 42.2208 92.1296 41.7537 92.2876 41.3643C92.4456 40.975 92.6168 40.5078 92.6827 40.3261C92.7485 40.1445 92.9197 39.6773 93.0777 39.2879C93.2357 38.8986 93.4069 38.4314 93.4728 38.2498C93.5386 38.0681 93.7098 37.6009 93.8678 37.2116C94.0258 36.8222 94.197 36.3551 94.2629 36.1734C94.3287 35.9917 94.4999 35.5245 94.6579 35.1352C94.8159 34.7459 94.9871 34.2787 95.053 34.097C95.1188 33.9153 95.29 33.4481 95.448 33.0588C95.606 32.6695 95.7772 32.2023 95.8431 32.0206C95.9089 31.8389 96.0801 31.3717 96.2381 30.9824C96.3961 30.5931 96.5673 30.1259 96.6332 29.9442C96.699 29.7625 96.8702 29.2953 97.0282 28.906C97.1862 28.5167 97.3574 28.0495 97.4232 27.8678C97.4891 27.6861 97.6603 27.219 97.8183 26.8296C97.9763 26.4403 98.1475 25.9731 98.2133 25.7914C98.2792 25.6098 98.4504 25.1426 98.6084 24.7532C98.7664 24.3639 98.9376 23.8967 99.0034 23.7151C99.0693 23.5334 99.2405 23.0662 99.3985 22.6769C100.044 21.0417 100.096 20.8341 99.8989 20.7173C99.8067 20.6524 98.187 20.6005 96.2908 20.6005C93.1041 20.6005 92.8407 20.6135 92.63 20.847Z" fill="black"/>
<path d="M101.308 20.938C101.189 21.1327 101.031 21.4311 100.979 21.6258C100.913 21.8075 100.742 22.2877 100.584 22.677C100.426 23.0663 100.254 23.5335 100.189 23.7152C100.123 23.8969 99.9515 24.364 99.7935 24.7534C99.6355 25.1427 99.4511 25.6358 99.3853 25.8564C99.3194 26.0641 99.2141 26.3626 99.1483 26.5053C99.0824 26.6481 98.7532 27.5175 98.4108 28.4519C98.0685 29.3733 97.7393 30.2558 97.6734 30.3985C97.6076 30.5413 97.5022 30.8268 97.4364 31.0474C97.3705 31.255 97.1862 31.7612 97.0282 32.1505C96.8701 32.5398 96.699 33.007 96.6331 33.1887C96.5673 33.3704 96.3961 33.8376 96.2381 34.2269C96.08 34.6162 95.9089 35.0834 95.843 35.2651C95.7772 35.4468 95.606 35.9139 95.448 36.3033C95.29 36.6926 95.1188 37.1598 95.0529 37.3415C94.9871 37.5231 94.8159 37.9903 94.6579 38.3796C94.4999 38.769 94.3287 39.2362 94.2628 39.4178C94.197 39.5995 94.0258 40.0667 93.8678 40.456C93.4727 41.4683 93.2094 42.1561 93.0777 42.5324C93.0118 42.7141 92.8407 43.1813 92.6826 43.5706C92.5246 43.9599 92.3534 44.4271 92.2876 44.6088C92.2217 44.7905 92.0506 45.2577 91.8925 45.647C91.7477 46.0363 91.4975 46.7112 91.3526 47.1394C91.2078 47.5677 91.0366 48.0348 90.9708 48.1776C90.9049 48.3204 90.6942 48.8394 90.5099 49.3456C90.3255 49.8387 90.128 50.3708 90.0622 50.5135C89.4037 52.0059 89.1009 51.8762 93.3279 51.8762C96.9887 51.8762 97.015 51.8762 97.2125 51.5907C97.331 51.4349 97.4232 51.2013 97.4232 51.0845C97.4232 50.9548 97.5022 50.6952 97.6076 50.4876C97.7129 50.2929 97.8973 49.8776 98.0026 49.5662C98.1211 49.2677 98.3055 48.7875 98.4108 48.502C98.5162 48.2165 98.6874 47.7623 98.7927 47.4898C98.8981 47.2302 99.0692 46.7631 99.1878 46.4516C99.3063 46.1531 99.4775 45.6859 99.5828 45.4134C99.6882 45.1539 100.044 44.2325 100.386 43.376C100.715 42.5194 101.071 41.611 101.176 41.3645C101.835 39.6904 101.953 39.4308 102.045 39.5736C102.085 39.6644 102.177 41.8706 102.23 44.479C102.282 47.0875 102.361 49.7998 102.414 50.5135L102.493 51.8113L107.365 51.8762L112.238 51.9411L111.592 52.2266C111.237 52.3953 110.855 52.525 110.736 52.525C110.605 52.525 110.249 52.6029 109.92 52.7067C109.604 52.7976 108.959 52.9922 108.485 53.109C107.497 53.3686 106.43 53.6541 105.588 53.8877C105.258 53.9785 104.613 54.1472 104.139 54.264C103.665 54.3938 102.954 54.5755 102.559 54.6793C101.255 55.0297 100.399 55.2633 99.6882 55.445C98.8981 55.6656 97.8709 55.9381 96.857 56.2106C96.4883 56.3144 95.7903 56.4961 95.3163 56.6129C94.8422 56.7427 94.197 56.9114 93.8678 57.0022C93.5386 57.0931 92.8933 57.2618 92.4193 57.3916C91.9452 57.5213 91.3 57.69 90.9708 57.7809C90.6416 57.8717 89.9963 58.0404 89.5223 58.1702C89.0482 58.287 88.3371 58.4687 87.9421 58.5855C87.547 58.6893 86.9018 58.858 86.5199 58.9618C85.5059 59.2344 84.4788 59.5069 83.6887 59.7145C83.32 59.8183 82.6221 60 82.148 60.1168C81.674 60.2466 81.0287 60.4153 80.6995 60.5061C80.3703 60.597 79.7251 60.7657 79.251 60.8955C78.2107 61.168 77.1441 61.4535 76.354 61.6741C76.0248 61.765 75.3795 61.9337 74.9055 62.0634C74.4314 62.1802 73.7598 62.3619 73.3911 62.4528C71.2315 63.0238 70.7706 63.0887 68.3214 63.0757C65.8194 63.0757 65.4902 63.0367 63.3833 62.3879C62.9487 62.2581 62.2244 61.9466 61.7636 61.713C61.3027 61.4795 60.7759 61.2069 60.5784 61.1031C60.3809 60.9993 59.6566 60.3634 58.9719 59.6756C58.0106 58.7153 57.6156 58.2091 57.2337 57.4565C56.3514 55.6526 56.0617 54.5106 55.9827 52.4601C55.9168 50.799 56.1802 48.8784 56.7333 47.0096C56.8913 46.5035 57.0625 45.9195 57.1283 45.7119C57.3127 45.089 57.6024 44.3622 58.1686 43.0645C59.0114 41.1568 58.8797 41.2347 56.786 43.7912C54.1918 46.9707 52.4273 49.3715 50.2545 52.7197C49.9385 53.2128 49.6224 53.719 49.5829 53.8228C49.5302 53.9266 49.3722 54.1861 49.2274 54.4068C48.964 54.822 48.8323 55.0427 48.1871 56.2236C46.6991 58.9099 45.6588 61.2588 45.0794 63.2314C44.5658 64.9574 44.5 65.2169 44.3024 66.2162C43.9996 67.7475 44.0259 70.6285 44.3551 71.7965C44.895 73.7301 45.4349 74.7164 46.6464 75.9882C47.9105 77.2989 50.5047 79.0768 51.6767 79.4272C51.8215 79.4662 52.2561 79.6219 52.6511 79.7646C54.4815 80.4524 55.5613 80.6082 58.5768 80.6082C61.4343 80.6082 62.0928 80.5303 64.4367 79.9593C65.7535 79.6349 67.7288 79.0639 68.3214 78.8432C68.4925 78.7784 68.9929 78.6096 69.4407 78.4669C69.8752 78.3241 70.6785 78.0257 71.2184 77.805C71.7583 77.5974 72.443 77.3249 72.7327 77.2211C73.0224 77.1043 73.4438 76.9485 73.6545 76.8447C73.8784 76.7539 75.1425 76.2348 76.4857 75.6897C79.4222 74.4828 79.567 74.4179 80.2386 74.1324C80.5283 74.0156 80.9629 73.834 81.1999 73.7301C81.4238 73.6263 81.832 73.4576 82.0822 73.3538C82.6616 73.0942 83.3332 72.8087 83.9257 72.5751C84.1759 72.4713 84.5973 72.2896 84.8475 72.1858C85.5454 71.9003 86.1775 71.6408 86.7306 71.3942C86.9939 71.2774 87.4022 71.1087 87.6129 71.0179C88.5741 70.6285 89.5354 70.2262 90.3782 69.8629C90.6679 69.7331 91.0893 69.5514 91.3 69.4606C91.5238 69.3697 91.9189 69.201 92.1822 69.0842C92.7353 68.8377 93.3674 68.5781 94.0653 68.2926C95.1451 67.8384 95.6587 67.6178 97.1993 66.9429C97.6866 66.7223 98.1343 66.5406 98.2001 66.5406C98.266 66.5406 98.5162 66.4368 98.7664 66.32C99.3985 66.0086 99.1219 66.1254 105.522 63.4261C108.774 62.0505 111.526 60.8825 111.645 60.8306C112.04 60.6489 112.777 60.3374 113.488 60.0519C113.884 59.8962 114.542 59.6237 114.937 59.442C116.122 58.9099 116.491 58.7542 116.978 58.5595C117.939 58.1572 119.177 57.6252 119.546 57.4565C119.664 57.4045 121.995 56.4053 124.747 55.2503C127.5 54.0953 129.83 53.096 129.949 53.0441C130.173 52.9273 130.923 52.6159 131.569 52.3563C132.056 52.1487 132.951 51.7594 133.241 51.6166C133.359 51.5647 135.901 50.4876 138.903 49.2158C141.906 47.944 144.447 46.8669 144.566 46.815C144.75 46.7241 145.066 46.5814 146.146 46.1401C146.712 45.9066 147.594 45.5172 147.871 45.3875C147.976 45.3355 149.491 44.6867 151.229 43.9599C152.954 43.2332 154.429 42.5843 154.508 42.5194C154.573 42.4546 154.705 42.4026 154.797 42.4026C154.89 42.4026 155.35 42.221 155.798 42.0133C156.259 41.7927 156.68 41.624 156.733 41.624C156.773 41.624 157.22 41.4423 157.708 41.2217C158.195 40.9881 158.774 40.7286 158.985 40.6377C160.67 39.911 161 39.7033 160.828 39.4178C160.71 39.2362 160.341 39.2491 159.538 39.4827C158.682 39.7423 157.787 39.9759 156.68 40.2614C156.206 40.3911 155.561 40.5599 155.232 40.6507C154.903 40.7415 154.257 40.9102 153.783 41.04C153.309 41.1698 152.664 41.3385 152.335 41.4293C152.006 41.5202 151.36 41.6889 150.886 41.8187C150.412 41.9355 149.714 42.1171 149.346 42.221C148.964 42.3248 148.332 42.4805 147.963 42.5843C147.581 42.6882 146.883 42.8698 146.409 42.9866C145.935 43.1164 145.264 43.2981 144.895 43.3889C142.933 43.934 141.642 44.2844 140.615 44.5439C140.141 44.6737 139.496 44.8424 139.167 44.9332C138.837 45.0241 138.192 45.1928 137.718 45.3226C137.244 45.4523 136.599 45.621 136.27 45.7119C135.94 45.8027 135.295 45.9714 134.821 46.1012C134.347 46.218 133.649 46.3997 133.28 46.5035C132.899 46.6073 132.266 46.7631 131.898 46.8669C131.516 46.9707 130.818 47.1524 130.344 47.2822C128.606 47.7234 128.026 47.8791 127.737 47.9959C127.565 48.0608 127.315 48.1127 127.17 48.1127C126.933 48.1127 126.907 48.0608 126.986 47.6845C127.039 47.4638 127.157 47.1264 127.249 46.9447C127.342 46.7631 127.447 46.4776 127.46 46.2959L127.513 45.9714L123.444 45.9325C120.876 45.9195 119.309 45.8546 119.204 45.7638C119.098 45.673 119.072 45.5302 119.151 45.2836C119.533 44.1027 120.889 40.5469 121.324 39.5736C121.429 39.34 121.521 39.0415 121.521 38.8987C121.521 38.769 121.653 38.5613 121.811 38.4575C122.061 38.2758 122.64 38.2499 125.485 38.2499C129.251 38.2499 129.04 38.3018 129.356 37.3155C129.462 37.004 129.659 36.433 129.817 36.0437C130.897 33.2665 131.042 32.8383 130.963 32.6177C130.884 32.436 130.502 32.41 127.579 32.41C124.932 32.41 124.26 32.3711 124.207 32.2284C124.142 32.0596 125.34 28.6855 126.077 26.9855C126.183 26.7519 126.262 26.4794 126.262 26.3626C126.262 25.9992 126.946 25.9213 130.489 25.9213H134.031L134.242 25.4282C134.36 25.1686 134.505 24.8053 134.558 24.6236C134.624 24.4419 134.795 23.9747 134.953 23.5854C135.111 23.1961 135.282 22.7289 135.348 22.5472C135.414 22.3655 135.585 21.9113 135.73 21.522C135.875 21.1327 135.967 20.7823 135.927 20.7433C135.888 20.7044 130.805 20.6525 124.616 20.6265C114.042 20.6006 113.37 20.6136 113.12 20.8212C112.856 21.0548 108.59 26.0771 107.694 27.2191C107.444 27.5435 107.102 27.9458 106.944 28.1275C106.786 28.3092 106.47 28.6466 106.259 28.8802C105.811 29.3863 105.588 29.2306 105.89 28.6077C105.996 28.3741 106.18 27.9458 106.299 27.6343C107.062 25.6228 107.128 25.4412 107.892 23.5205C108.221 22.664 108.59 21.7686 108.695 21.535C108.932 20.9899 108.932 20.7823 108.669 20.6785C108.55 20.6395 106.904 20.6006 104.995 20.6006H101.532L101.308 20.938ZM120.296 22.3136C120.257 22.4823 120.099 22.9365 119.941 23.3258C119.783 23.7152 119.612 24.1824 119.546 24.364C119.48 24.5457 119.309 25.0129 119.151 25.4022C118.993 25.7916 118.822 26.2587 118.756 26.4404C118.69 26.6221 118.519 27.0893 118.361 27.4786C118.203 27.8679 118.032 28.3351 117.966 28.5168C117.9 28.6985 117.729 29.1657 117.571 29.555C117.413 29.9443 117.241 30.4115 117.176 30.5932C117.11 30.7749 116.939 31.2421 116.781 31.6314C116.623 32.0207 116.451 32.4879 116.386 32.6696C116.32 32.8513 116.148 33.3185 115.99 33.7078C115.832 34.0971 115.661 34.5643 115.595 34.746C115.53 34.9277 115.358 35.3948 115.2 35.7842C115.042 36.1735 114.871 36.6407 114.805 36.8224C114.739 37.004 114.568 37.4712 114.41 37.8606C114.252 38.2499 114.081 38.7171 114.015 38.8987C113.949 39.0804 113.778 39.5476 113.62 39.9369C113.462 40.3263 113.291 40.7934 113.225 40.9751C113.093 41.3515 112.83 42.0393 112.435 43.0515C112.277 43.4408 112.106 43.908 112.04 44.0897C111.974 44.2714 111.803 44.7386 111.645 45.1279C111.487 45.5172 111.316 45.9844 111.25 46.1661C111.184 46.3478 111.013 46.815 110.855 47.2043C110.697 47.5936 110.512 48.0997 110.447 48.3333C110.341 48.6707 109.986 48.9952 109.854 48.8654C109.841 48.8394 109.762 45.8806 109.683 42.2729C109.604 38.6652 109.499 35.278 109.459 34.733C109.367 33.604 109.367 33.591 110.42 32.5009C110.776 32.1245 111.355 31.5016 111.711 31.1123C112.053 30.723 112.975 29.7237 113.739 28.9061C114.502 28.0886 115.49 27.0374 115.925 26.5702C116.359 26.103 117.228 25.1557 117.86 24.4808C118.492 23.793 119.256 22.9625 119.559 22.638C120.152 21.9762 120.402 21.8724 120.296 22.3136Z" fill="black"/>
<path d="M138.114 20.8212C137.508 21.2365 137.337 21.5479 137.324 22.1838C137.324 22.6899 137.403 22.8846 137.732 23.261C138.114 23.6892 138.193 23.7152 138.917 23.7152C139.588 23.7152 139.746 23.6633 140.115 23.3388C140.51 22.9884 140.55 22.8846 140.55 22.2228C140.55 21.535 140.51 21.4571 140.062 21.0418C139.654 20.6785 139.457 20.6006 138.996 20.6006C138.68 20.6006 138.298 20.6914 138.114 20.8212ZM140.062 22.106C140.102 22.5861 139.931 22.8457 139.654 22.7289C139.417 22.638 139.338 22.1579 139.562 22.1579C139.641 22.1579 139.694 22.0411 139.694 21.8853C139.694 21.4701 140.023 21.6647 140.062 22.106ZM138.153 22.0541C138.245 22.3525 138.166 22.5472 137.969 22.5472C137.903 22.5472 137.85 22.3655 137.85 22.1579C137.85 21.7037 138.048 21.6388 138.153 22.0541ZM139.272 23.0922C139.233 23.1831 139.101 23.261 138.97 23.261C138.838 23.261 138.706 23.1831 138.68 23.0922C138.64 23.0014 138.746 22.9365 138.97 22.9365C139.193 22.9365 139.299 23.0014 139.272 23.0922ZM63.1862 57.4824C61.7772 57.8198 61.5797 59.7534 62.8833 60.3634C63.7656 60.7787 64.74 60.4802 65.1614 59.6626C65.517 58.9878 65.4906 58.7542 65.0429 58.1442C64.5952 57.5473 63.9368 57.3007 63.1862 57.4824ZM63.0282 59.0916C63.0018 59.3771 62.936 59.5847 62.857 59.5588C62.6595 59.5069 62.5541 58.9748 62.6858 58.6374C62.857 58.1702 63.0808 58.4817 63.0282 59.0916ZM63.8183 58.5076C63.7919 58.5855 63.7129 58.6374 63.6471 58.6374C63.5812 58.6374 63.5022 58.5855 63.4759 58.5076C63.4496 58.4298 63.5286 58.3649 63.6471 58.3649C63.7656 58.3649 63.8446 58.4298 63.8183 58.5076ZM64.7664 59.0137C64.7664 59.1305 64.6874 59.3252 64.5952 59.455C64.4503 59.6496 64.3977 59.6626 64.266 59.5069C64.1606 59.3641 64.1475 59.1954 64.2528 58.8191C64.3845 58.3389 64.4108 58.3259 64.582 58.5595C64.6874 58.6893 64.7664 58.8969 64.7664 59.0137ZM63.7919 59.8702C63.7261 60.039 63.6602 60.0519 63.5549 59.9481C63.4759 59.8702 63.4496 59.7145 63.5022 59.5847C63.5681 59.416 63.6339 59.4031 63.7393 59.5069C63.8183 59.5847 63.8446 59.7405 63.7919 59.8702ZM111.25 81.7112C110.434 81.828 109.038 82.5418 108.393 83.1647C107.761 83.7617 107.05 84.7999 106.747 85.5526C106.418 86.3831 106.115 87.4862 106.115 87.9015C106.115 88.4465 105.917 88.7061 105.812 88.3167C105.759 88.161 105.72 87.8885 105.72 87.7457C105.72 87.3175 105.338 86.1495 104.956 85.3579C104.298 84.0212 102.928 82.8403 101.44 82.3342C100.861 82.1395 100.334 82.1135 97.4895 82.1395L94.1974 82.1784L94.1184 82.5677C94.0658 82.7754 94.0263 86.448 94.0131 90.7046L93.9999 98.4651L94.3423 98.5429C94.5398 98.5948 96.0278 98.5949 97.6739 98.5559C100.953 98.4781 101.414 98.3872 102.678 97.5696C104.35 96.5055 105.219 94.9612 105.786 92.0672C105.878 91.613 106.115 91.7298 106.115 92.2359C106.115 92.8848 106.589 94.5978 107.01 95.4932C107.734 97.0246 108.867 98.0238 110.526 98.6208C111.448 98.9582 113.581 98.9452 114.582 98.6078C116.412 97.9849 117.663 96.6093 118.44 94.3772C118.69 93.6245 119.02 91.2886 119.02 90.2244C119.006 88.5374 118.559 86.2014 118.045 85.0983C116.781 82.412 114.463 81.257 111.25 81.7112ZM112.765 85.7732C113.357 86.0327 113.594 86.7075 113.752 88.6152C113.871 89.9259 113.871 90.7176 113.752 91.8985C113.542 93.9749 113.226 94.5719 112.356 94.5719C111.975 94.5719 111.856 94.494 111.606 94.0917C110.947 92.9756 110.684 90.2244 111.053 88.0702C111.316 86.448 111.632 85.877 112.396 85.6304C112.409 85.6174 112.58 85.6823 112.765 85.7732ZM99.7545 86.6556C100.294 86.9801 100.518 87.3953 100.768 88.6282C101.098 90.1595 101.005 92.0023 100.545 93.365C100.36 93.91 99.3594 94.7146 99.1355 94.494C99.0039 94.3642 98.938 86.7465 99.0697 86.5259C99.1882 86.3442 99.2804 86.3571 99.7545 86.6556ZM74.6426 81.9578C73.0887 82.5288 72.1406 83.4632 71.6929 84.8777C71.5085 85.4617 71.3505 84.8518 71.3505 83.5281V82.1135H66.6099V87.6289C66.6099 92.3657 66.5836 93.2092 66.3992 93.6505C66.0964 94.4032 65.517 94.5459 64.9376 94.0138C64.6479 93.7543 64.6347 93.6764 64.6347 91.3405C64.6347 90.0168 64.5952 87.3953 64.5425 85.5266L64.4635 82.1135H54.7585V88.0702C54.7585 93.7413 54.7453 94.0398 54.5083 94.3253C54.2976 94.5848 54.1396 94.6367 53.6655 94.6108C53.3363 94.5978 52.9149 94.494 52.7306 94.3772C52.0722 93.9489 51.9932 94.1176 51.9932 96.1032C51.9932 98.1926 51.98 98.1796 53.2968 98.5948C56.1675 99.4903 58.9592 97.946 59.4859 95.1558C59.6308 94.4161 59.7229 94.3123 59.8283 94.7795C60.0126 95.5841 60.355 96.3498 60.8291 96.9727C61.4611 97.8032 61.9879 98.1406 63.3179 98.6078C64.3318 98.9582 66.7416 98.9582 67.9136 98.5948C69.4279 98.1277 70.6394 96.9467 70.9818 95.636C71.1793 94.8314 71.39 95.1429 71.4164 96.2849C71.4295 96.804 71.4559 97.3231 71.4559 97.4399C71.4822 97.6864 72.483 98.2445 73.5364 98.5948C74.5504 98.9452 76.3018 98.9452 77.3552 98.6078C78.4877 98.2445 78.9881 97.959 79.6465 97.3101C80.4366 96.5314 80.779 95.8566 81.0555 94.5329C81.2662 93.5077 81.2662 93.4169 81.0424 92.4955C80.6605 90.9382 80.1864 90.3672 77.3552 87.9144C76.6573 87.2915 76.4861 87.0839 76.4861 86.7724C76.4861 86.2533 77.0129 85.7472 77.5264 85.7472C78.0268 85.7472 79.2515 86.1884 79.686 86.5259C80.0811 86.8373 80.2918 86.8503 80.4893 86.5778C80.6341 86.3831 81.3584 86.3312 83.1361 86.3961C83.3073 86.3961 83.3336 87.1877 83.36 92.3916L83.3995 98.4002H88.14L88.1795 92.4955C88.1927 89.0824 88.2586 86.5518 88.3376 86.4739C88.4034 86.4091 88.9301 86.3701 89.5095 86.3831C90.4445 86.4091 90.5762 86.3831 90.7079 86.1495C90.7869 85.9808 90.8395 85.1892 90.8132 84.0342L90.7737 82.1784L85.7566 82.1395C81.4111 82.1135 80.7131 82.1395 80.5683 82.3082C80.3708 82.5418 80.0021 82.5548 79.6333 82.3601C78.5009 81.7631 75.775 81.5425 74.6426 81.9578ZM71.7456 88.2908C71.7456 88.8618 72.641 89.9389 74.5372 91.626C75.8409 92.7939 76.1306 93.2482 75.9331 93.8192C75.6302 94.6627 74.5109 94.8314 73.2204 94.2085C72.1406 93.6764 71.5612 93.352 71.4559 93.2092C71.3373 93.0535 71.311 88.161 71.4295 88.0442C71.5612 87.9274 71.7456 88.0702 71.7456 88.2908ZM121.851 82.2822C121.811 82.3601 121.798 86.0327 121.811 90.4191L121.851 98.4002L124.261 98.4391L126.657 98.4651V92.4695C126.657 89.1603 126.71 86.3961 126.763 86.3052C126.828 86.2014 126.934 86.1884 127.052 86.2663C127.158 86.3442 127.803 86.3961 128.461 86.3961H129.686L129.712 92.3916L129.752 98.4002L132.043 98.4391C133.307 98.4521 134.387 98.4261 134.453 98.3613C134.519 98.2964 134.571 95.5971 134.558 92.3138V86.3961H135.664C137.231 86.3961 137.205 86.435 137.165 84.0861L137.126 82.1784L129.515 82.1525C123.589 82.1265 121.89 82.1525 121.851 82.2822Z" fill="black"/>
<path d="M136.678 93.6894C136.086 93.8581 135.519 94.2734 135.177 94.8314C134.953 95.1818 134.9 95.4803 134.9 96.22C134.9 97.0506 134.94 97.2193 135.295 97.7124C135.849 98.4911 136.546 98.8544 137.495 98.8544C138.456 98.8544 139.167 98.517 139.694 97.7903C140.049 97.3101 140.089 97.1674 140.089 96.207C140.089 95.1689 140.076 95.1429 139.562 94.5459C138.798 93.6765 137.784 93.365 136.678 93.6894Z" fill="black"/>
</g>
</g>
<defs>
<filter id="filter0_d_335_821" x="0" y="0" width="205" height="128" filterUnits="userSpaceOnUse" color-interpolation-filters="sRGB">
<feFlood flood-opacity="0" result="BackgroundImageFix"/>
<feColorMatrix in="SourceAlpha" type="matrix" values="0 0 0 0 0 0 0 0 0 0 0 0 0 0 0 0 0 0 127 0" result="hardAlpha"/>
<feOffset dy="4"/>
<feGaussianBlur stdDeviation="2"/>
<feComposite in2="hardAlpha" operator="out"/>
<feColorMatrix type="matrix" values="0 0 0 0 0 0 0 0 0 0 0 0 0 0 0 0 0 0 0.15 0"/>
<feBlend mode="normal" in2="BackgroundImageFix" result="effect1_dropShadow_335_821"/>
<feBlend mode="normal" in="SourceGraphic" in2="effect1_dropShadow_335_821" result="shape"/>
</filter>
<clipPath id="clip0_335_821">
<rect width="117" height="79.56" fill="white" transform="translate(44 20.22)"/>
</clipPath>
</defs>
</svg>
