<svg width="204" height="192" viewBox="0 0 204 192" fill="none" xmlns="http://www.w3.org/2000/svg">
<rect width="204" height="192" rx="8" fill="#497AA5"/>
<g opacity="0.2">
<path d="M52.6825 31.9258C52.5096 32.0968 52.2719 32.5455 52.1207 32.9515C51.9694 33.3361 51.7101 34.0199 51.5372 34.4473C50.7593 36.52 50.5648 37.0328 50.2406 37.8661C50.0461 38.379 49.7652 39.1269 49.614 39.5328C49.4627 39.9388 49.1602 40.7081 48.9657 41.2423C48.7712 41.7765 48.4687 42.5671 48.2958 42.9945C48.1229 43.4432 47.8636 44.1697 47.6907 44.5971C47.5178 45.0458 47.2369 45.815 47.0424 46.3065C46.6102 47.4818 46.1348 48.7211 45.7459 49.7254C45.573 50.1741 45.2705 50.9647 45.076 51.4989C44.8815 52.0331 44.579 52.8238 44.4061 53.2511C44.2332 53.6999 43.9739 54.4264 43.801 54.8537C43.6281 55.3025 43.3472 56.0717 43.1527 56.5632C42.9583 57.076 42.6773 57.8453 42.5045 58.2726C42.3316 58.7213 42.029 59.512 41.8346 60.0462C41.6401 60.5804 41.3375 61.3496 41.1863 61.7556C41.035 62.1616 40.7325 62.9308 40.538 63.465C40.3435 63.9993 40.041 64.7899 39.8681 65.2172C39.4791 66.2429 39.0037 67.4822 38.5715 68.6361C38.377 69.1489 38.0961 69.8968 37.9449 70.3028C37.7936 70.7088 37.5343 71.4353 37.3398 71.9054C37.1669 72.3755 36.8428 73.1875 36.6483 73.7217C36.1729 74.9397 35.6975 76.179 35.3517 77.1406C35.2005 77.5466 34.9195 78.2945 34.7251 78.7859C34.5306 79.2988 34.228 80.1108 34.0335 80.6022C33.8391 81.115 33.6014 81.692 33.4933 81.8843C33.3853 82.098 33.2988 82.4612 33.2988 82.6963C33.2988 83.1236 33.4285 83.1236 39.3063 83.1236H45.3353L45.5946 82.5253C45.7459 82.2048 46.2645 80.9441 46.7399 79.7048C47.2153 78.4654 47.7988 76.9697 48.0365 76.3927C48.2742 75.7944 48.5551 75.0252 48.6415 74.6833C48.8576 73.9354 49.1169 73.2516 50.5864 69.5549C51.1915 68.0164 51.7749 66.4779 51.883 66.1361C52.1855 65.1318 52.7689 63.5933 52.9418 63.3582C53.0499 63.2514 53.1795 62.8667 53.266 62.5249C53.374 62.0761 53.4821 61.9693 53.6549 62.1402C53.8926 62.3753 53.7846 63.9993 52.8338 76.6064C52.6393 79.0637 52.5312 81.521 52.5745 82.0552L52.6393 83.0168L58.798 83.0809C62.1907 83.1023 65.1728 83.0809 65.4321 83.0168C65.6914 82.9527 65.9723 82.6963 66.0371 82.4185C66.21 81.8416 67.3769 78.7646 67.7659 77.8885C67.9172 77.5252 68.09 77.0551 68.1549 76.8201C68.2197 76.585 68.4574 75.9012 68.6951 75.3243C68.9112 74.726 69.6243 72.9097 70.2294 71.2644C70.856 69.619 71.5043 67.9951 71.6772 67.6746C71.8501 67.3327 71.9797 66.9267 71.9797 66.7771C71.9797 66.6062 72.131 66.1147 72.3255 65.666C72.8657 64.4693 73.6869 62.418 74.2487 60.9009C74.4 60.4949 74.7025 59.7256 74.897 59.1914C75.0915 58.6572 75.394 57.888 75.5453 57.482C75.6966 57.076 75.9775 56.3281 76.172 55.8153C76.3665 55.3238 76.669 54.5332 76.8419 54.0631C77.0147 53.593 77.3173 52.8238 77.4902 52.3537C77.663 51.8836 77.9656 51.1143 78.1384 50.6442C78.3113 50.1741 78.6138 49.4049 78.7867 48.9348C78.9596 48.4647 79.2621 47.6954 79.435 47.2253C79.6079 46.7552 79.9104 45.986 80.0833 45.5159C80.2562 45.0458 80.5587 44.2552 80.7532 43.7424C80.9477 43.2509 81.2286 42.503 81.3798 42.097C81.6824 41.285 82.1146 40.1312 82.6548 38.7209C82.8493 38.2294 83.1518 37.4388 83.3247 36.9687C83.9946 35.1738 84.362 34.2763 84.6645 33.5284C84.8374 33.1011 84.9454 32.5241 84.9022 32.2463L84.8374 31.7335L79.543 31.6694C76.6258 31.6267 73.9462 31.6694 73.5788 31.7335C72.8657 31.8617 72.8873 31.7762 71.0073 36.755C70.8344 37.2251 70.5319 37.9943 70.359 38.4644C70.1862 38.9345 69.9052 39.6824 69.7324 40.1098C69.5595 40.5585 69.2786 41.3278 69.0841 41.8192C68.8896 42.3321 68.5871 43.144 68.3926 43.6355C67.7227 45.3877 67.4634 46.0501 66.7935 47.8664C65.5617 51.1143 65.4537 51.3921 65.1728 52.0331C65.0215 52.375 64.827 52.8665 64.7622 53.0802C64.6757 53.3366 64.5461 53.4221 64.4164 53.2939C64.2868 53.1657 64.33 51.969 64.5245 50.0032C64.6974 48.2937 64.8486 46.1356 64.8486 45.1954C64.8486 44.2552 64.9999 41.9902 65.1512 40.1739C65.5185 36.1994 65.6482 32.2677 65.4321 31.8831C65.1728 31.4771 53.1147 31.5198 52.6825 31.9258ZM86.8038 32.0327C86.6093 32.2463 86.35 32.6951 86.242 33.037C86.1555 33.3789 85.853 34.1908 85.5937 34.8319C85.3344 35.4729 85.0535 36.2422 84.9454 36.5413C84.8374 36.8405 84.5564 37.6097 84.2971 38.2508C84.0378 38.8918 83.7569 39.6611 83.6488 39.9602C83.5408 40.2594 83.2599 41.0286 83.0006 41.6697C82.7412 42.3107 82.4603 43.0799 82.3523 43.3791C82.2442 43.6782 81.9633 44.4475 81.704 45.0885C81.4447 45.7296 81.1638 46.4988 81.0557 46.798C80.9477 47.0971 80.6667 47.8664 80.4074 48.5074C80.1481 49.1485 79.8672 49.9177 79.7591 50.2169C79.6511 50.516 79.3702 51.2853 79.1109 51.9263C78.8515 52.5674 78.5706 53.3366 78.4626 53.6358C78.3545 53.9349 78.0736 54.7042 77.8143 55.3452C77.555 55.9862 77.2741 56.7555 77.166 57.0546C77.058 57.3538 76.777 58.123 76.5177 58.7641C76.2584 59.4051 75.9775 60.1744 75.8694 60.4735C75.7614 60.7727 75.4805 61.5419 75.2212 62.183C74.5729 63.8497 74.1407 64.9822 73.9246 65.6019C73.8165 65.901 73.5356 66.6703 73.2763 67.3113C73.017 67.9523 72.7361 68.7216 72.628 69.0207C72.52 69.3199 72.2391 70.0891 71.9797 70.7302C71.7204 71.3712 71.4395 72.1405 71.3315 72.4396C71.2234 72.7388 70.9425 73.508 70.6832 74.1491C70.4239 74.7901 70.1429 75.5594 70.0349 75.8585C69.9268 76.1577 69.6459 76.9269 69.3866 77.568C69.1273 78.209 68.8464 78.9782 68.7383 79.2774C68.6303 79.5765 68.3494 80.3458 68.09 80.9868C67.2041 83.2091 66.6854 83.0168 73.5356 83.0809L79.5214 83.1236L79.8888 82.4399C80.0833 82.0766 80.321 81.521 80.4074 81.2219C80.5155 80.9227 80.7964 80.1321 81.0557 79.4911C81.315 78.85 81.5959 78.0808 81.704 77.7816C81.812 77.4825 82.093 76.7132 82.3523 76.0722C82.6116 75.4312 82.8925 74.6619 83.0006 74.3628C83.1086 74.0636 83.3895 73.2943 83.6488 72.6533C83.9082 72.0123 84.1891 71.243 84.2971 70.9439C84.4052 70.6447 84.6861 69.8755 84.9454 69.2344C85.2047 68.5934 85.4856 67.8241 85.5937 67.525C85.7017 67.2258 85.9827 66.4566 86.242 65.8155C86.5013 65.1745 86.7822 64.4052 86.8903 64.1061C86.9983 63.8069 87.2792 63.0377 87.5385 62.3966C87.7979 61.7556 88.0788 60.9864 88.1868 60.6872C88.2949 60.3881 88.5758 59.6188 88.8351 58.9778C89.0944 58.3367 89.3753 57.5675 89.4834 57.2683C89.5914 56.9692 89.8724 56.1999 90.1317 55.5589C90.391 54.9178 90.6719 54.1486 90.78 53.8494C90.888 53.5503 91.1689 52.781 91.4282 52.14C91.6876 51.4989 91.9685 50.7297 92.0765 50.4305C92.1846 50.1314 92.4655 49.3621 92.7248 48.7211C92.9841 48.0801 93.265 47.3108 93.3731 47.0117C93.4811 46.7125 93.7621 45.9433 94.0214 45.3022C94.2807 44.6612 94.5616 43.8919 94.6697 43.5928C94.7777 43.2936 95.0586 42.5244 95.3179 41.8833C95.5773 41.2423 95.8582 40.473 95.9662 40.1739C96.0743 39.8747 96.3552 39.1055 96.6145 38.4644C96.8738 37.8234 97.1547 37.0542 97.2628 36.755C97.3708 36.4559 97.6518 35.6866 97.9111 35.0456C98.9699 32.3532 99.0564 32.0113 98.7322 31.819C98.581 31.7121 95.923 31.6267 92.8112 31.6267C87.5818 31.6267 87.1496 31.648 86.8038 32.0327Z" fill="black"/>
<path d="M101.044 32.1823C100.85 32.5028 100.59 32.9943 100.504 33.3148C100.396 33.6139 100.115 34.4046 99.8555 35.0456C99.5962 35.6866 99.3153 36.4559 99.2072 36.755C99.0992 37.0542 98.8182 37.8234 98.5589 38.4645C98.2996 39.1055 97.9971 39.9175 97.889 40.2808C97.781 40.6227 97.6081 41.1141 97.5001 41.3492C97.392 41.5842 96.8518 43.0159 96.2899 44.5544C95.7281 46.0715 95.1879 47.5245 95.0798 47.7596C94.9718 47.9946 94.7989 48.4647 94.6908 48.828C94.5828 49.1699 94.2803 50.0032 94.0209 50.6443C93.7616 51.2853 93.4807 52.0546 93.3727 52.3537C93.2646 52.6529 92.9837 53.4221 92.7244 54.0632C92.4651 54.7042 92.1841 55.4734 92.0761 55.7726C91.968 56.0718 91.6871 56.841 91.4278 57.482C91.1685 58.1231 90.8876 58.8923 90.7795 59.1915C90.6715 59.4906 90.3906 60.2599 90.1312 60.9009C89.8719 61.542 89.591 62.3112 89.483 62.6104C89.3749 62.9095 89.094 63.6788 88.8347 64.3198C88.1864 65.9865 87.7542 67.119 87.5381 67.7387C87.4301 68.0379 87.1491 68.8071 86.8898 69.4482C86.6305 70.0892 86.3496 70.8584 86.2415 71.1576C86.1335 71.4567 85.8526 72.226 85.5933 72.867C85.3556 73.5081 84.945 74.6192 84.7073 75.3244C84.4696 76.0295 84.1886 76.7988 84.0806 77.0338C83.9725 77.2689 83.6268 78.1236 83.3243 78.9569C83.0217 79.7689 82.6976 80.645 82.5895 80.8801C81.5091 83.3374 81.012 83.1237 87.9487 83.1237C93.9561 83.1237 93.9993 83.1237 94.3235 82.6536C94.518 82.3972 94.6692 82.0126 94.6692 81.8202C94.6692 81.6066 94.7989 81.1792 94.9718 80.8373C95.1446 80.5168 95.4472 79.833 95.62 79.3202C95.8145 78.8287 96.1171 78.0381 96.2899 77.568C96.4628 77.0979 96.7437 76.35 96.9166 75.9013C97.0895 75.4739 97.3704 74.7047 97.5649 74.1919C97.7594 73.7004 98.0403 72.9311 98.2132 72.4824C98.386 72.055 98.9695 70.5379 99.5313 69.1276C100.072 67.7173 100.655 66.2216 100.828 65.8156C101.908 63.0591 102.103 62.6317 102.254 62.8668C102.319 63.0164 102.47 66.6489 102.557 70.9439C102.643 75.2389 102.773 79.7048 102.859 80.8801L102.989 83.0169L110.984 83.1237L118.98 83.2305L117.921 83.7006C117.338 83.9784 116.711 84.1921 116.516 84.1921C116.3 84.1921 115.717 84.3203 115.177 84.4913C114.658 84.6408 113.599 84.9614 112.821 85.1537C111.2 85.581 109.45 86.0511 108.067 86.4357C107.527 86.5853 106.468 86.8631 105.69 87.0554C104.912 87.2691 103.745 87.5683 103.097 87.7392C100.958 88.3161 99.553 88.7008 98.3861 88.9999C97.0895 89.3632 95.4039 89.8119 93.74 90.2606C93.135 90.4316 91.9897 90.7307 91.2117 90.923C90.4338 91.1367 89.3749 91.4145 88.8347 91.5641C88.2944 91.7137 87.2356 91.9914 86.4576 92.2051C85.6797 92.4188 84.6208 92.6966 84.0806 92.8462C83.5404 92.9957 82.4815 93.2735 81.7036 93.4872C80.9256 93.6795 79.7587 93.9787 79.1104 94.171C78.4621 94.3419 77.4033 94.6197 76.7766 94.7907C75.1127 95.2394 73.4271 95.6881 72.1306 96.03C71.5255 96.2009 70.3802 96.5001 69.6023 96.6924C68.8243 96.9061 67.7655 97.1839 67.2252 97.3335C66.685 97.483 65.6261 97.7608 64.8482 97.9745C63.141 98.4232 61.3907 98.8933 60.0941 99.2566C59.5539 99.4062 58.495 99.6839 57.7171 99.8976C56.9391 100.09 55.837 100.389 55.232 100.539C51.688 101.479 50.9317 101.586 46.9123 101.564C42.8065 101.564 42.2663 101.5 38.8088 100.432C38.0957 100.218 36.9072 99.7053 36.1508 99.3207C35.3945 98.9361 34.5301 98.4873 34.206 98.3164C33.8818 98.1454 32.6933 97.0984 31.5696 95.9659C29.9921 94.3847 29.3438 93.5513 28.7172 92.312C27.2693 89.3418 26.7939 87.4614 26.6643 84.0853C26.5562 81.3502 26.9884 78.1877 27.896 75.1107C28.1553 74.2773 28.4362 73.3158 28.5443 72.9739C28.8468 71.9482 29.3222 70.7516 30.2514 68.6148C31.6344 65.4737 31.4184 65.6019 27.9824 69.8114C23.7254 75.0466 20.8297 78.9997 17.2642 84.5126C16.7455 85.3246 16.2269 86.158 16.1621 86.3289C16.0756 86.4999 15.8163 86.9272 15.5786 87.2905C15.1464 87.9742 14.9303 88.3375 13.8715 90.282C11.4296 94.7052 9.72246 98.5728 8.77164 101.821C7.92887 104.663 7.82083 105.09 7.49668 106.735C6.99967 109.257 7.04288 114.001 7.58312 115.924C8.46911 119.107 9.3551 120.731 11.3432 122.826C13.4177 124.984 17.6747 127.911 19.598 128.488C19.8357 128.552 20.5488 128.809 21.1971 129.044C24.2008 130.176 25.9728 130.433 30.9213 130.433C35.6106 130.433 36.6911 130.304 40.5375 129.364C42.6985 128.83 45.9399 127.89 46.9123 127.526C47.1933 127.42 48.0144 127.142 48.7491 126.907C49.4622 126.672 50.7804 126.18 51.6664 125.817C52.5524 125.475 53.6761 125.026 54.1515 124.855C54.6269 124.663 55.3184 124.407 55.6642 124.236C56.0315 124.086 58.106 123.232 60.3102 122.334C65.1291 120.347 65.3668 120.24 66.4689 119.77C66.9443 119.578 67.6574 119.278 68.0464 119.107C68.4137 118.937 69.0836 118.659 69.4942 118.488C70.445 118.06 71.5471 117.59 72.5195 117.206C72.9301 117.035 73.6216 116.736 74.0322 116.565C75.1775 116.095 76.2147 115.667 77.1223 115.261C77.5545 115.069 78.2244 114.791 78.5702 114.642C80.1477 114.001 81.7252 113.338 83.1082 112.74C83.5836 112.526 84.2751 112.227 84.6208 112.077C84.9882 111.928 85.6365 111.65 86.0687 111.458C86.9763 111.052 88.0135 110.624 89.1588 110.154C90.9308 109.406 91.7736 109.043 94.3019 107.932C95.1014 107.569 95.8361 107.27 95.9442 107.27C96.0522 107.27 96.4628 107.099 96.8734 106.906C97.9106 106.394 97.4568 106.586 107.959 102.141C113.297 99.8763 117.813 97.9531 118.007 97.8677C118.656 97.5685 119.866 97.0557 121.033 96.5856C121.681 96.3292 122.762 95.8804 123.41 95.5813C125.355 94.7052 125.96 94.4488 126.759 94.1282C128.337 93.4658 130.368 92.5897 130.973 92.312C131.168 92.2265 134.992 90.5811 139.509 88.6794C144.025 86.7776 147.85 85.1323 148.045 85.0468C148.412 84.8545 149.644 84.3417 150.703 83.9143C151.502 83.5724 152.972 82.9314 153.447 82.6963C153.641 82.6109 157.812 80.8373 162.739 78.7433C167.666 76.6492 171.837 74.8756 172.031 74.7902C172.334 74.6406 172.852 74.4055 174.624 73.679C175.553 73.2944 177.001 72.6534 177.455 72.4397C177.628 72.3542 180.113 71.2858 182.965 70.0892C185.796 68.8926 188.217 67.8242 188.346 67.7173C188.454 67.6105 188.67 67.525 188.822 67.525C188.973 67.525 189.729 67.2259 190.464 66.884C191.22 66.5207 191.912 66.2429 191.998 66.2429C192.063 66.2429 192.798 65.9438 193.597 65.5805C194.397 65.1959 195.348 64.7685 195.693 64.619C198.459 63.4224 199 63.0805 198.719 62.6104C198.524 62.3112 197.919 62.3326 196.601 62.7172C195.196 63.1446 193.727 63.5292 191.912 63.9993C191.134 64.213 190.075 64.4908 189.535 64.6403C188.994 64.7899 187.936 65.0677 187.158 65.2814C186.38 65.4951 185.321 65.7728 184.781 65.9224C184.24 66.072 183.182 66.3498 182.404 66.5635C181.626 66.7558 180.48 67.0549 179.875 67.2259C179.249 67.3968 178.211 67.6532 177.606 67.8242C176.98 67.9951 175.834 68.2943 175.056 68.4866C174.278 68.7003 173.176 68.9994 172.571 69.149C169.352 70.0465 167.234 70.6234 165.548 71.0508C164.77 71.2644 163.711 71.5422 163.171 71.6918C162.631 71.8414 161.572 72.1192 160.794 72.3328C160.016 72.5465 158.957 72.8243 158.417 72.9739C157.877 73.1235 156.818 73.4012 156.04 73.6149C155.262 73.8072 154.117 74.1064 153.512 74.2773C152.885 74.4483 151.848 74.7047 151.243 74.8756C150.616 75.0466 149.471 75.3457 148.693 75.5594C145.84 76.2859 144.89 76.5423 144.414 76.7347C144.133 76.8415 143.723 76.927 143.485 76.927C143.096 76.927 143.053 76.8415 143.182 76.2218C143.269 75.8586 143.463 75.303 143.615 75.0038C143.766 74.7047 143.939 74.2346 143.96 73.9354L144.047 73.4012L137.37 73.3371C133.156 73.3158 130.584 73.2089 130.411 73.0593C130.238 72.9098 130.195 72.6747 130.325 72.2687C130.951 70.3242 133.177 64.4694 133.89 62.8668C134.063 62.4822 134.215 61.9907 134.215 61.7557C134.215 61.542 134.431 61.2001 134.69 61.0291C135.101 60.73 136.051 60.6873 140.719 60.6873C146.899 60.6873 146.554 60.7727 147.072 59.1488C147.245 58.6359 147.569 57.6957 147.828 57.0547C149.6 52.4819 149.838 51.7768 149.709 51.4135C149.579 51.1144 148.952 51.0716 144.155 51.0716C139.811 51.0716 138.709 51.0075 138.623 50.7725C138.515 50.4947 140.481 44.939 141.691 42.1398C141.864 41.7552 141.994 41.3064 141.994 41.1141C141.994 40.5158 143.118 40.3876 148.931 40.3876H154.744L155.089 39.5756C155.284 39.1483 155.521 38.55 155.608 38.2508C155.716 37.9517 155.997 37.1824 156.256 36.5414C156.515 35.9003 156.796 35.1311 156.904 34.8319C157.012 34.5328 157.293 33.7849 157.531 33.1438C157.769 32.5028 157.92 31.9259 157.855 31.8618C157.79 31.7977 149.449 31.7122 139.293 31.6694C121.94 31.6267 120.838 31.6481 120.428 31.99C119.996 32.3746 112.994 40.644 111.525 42.5244C111.114 43.0586 110.552 43.721 110.293 44.0202C110.034 44.3193 109.515 44.8749 109.169 45.2595C108.434 46.0929 108.067 45.8365 108.564 44.8108C108.737 44.4262 109.04 43.721 109.234 43.2082C110.487 39.8961 110.595 39.597 111.849 36.4345C112.389 35.0242 112.994 33.5498 113.167 33.1652C113.556 32.2678 113.556 31.9259 113.124 31.7549C112.929 31.6908 110.228 31.6267 107.095 31.6267H101.411L101.044 32.1823ZM132.205 34.4473C132.14 34.7251 131.881 35.473 131.621 36.114C131.362 36.755 131.081 37.5243 130.973 37.8234C130.865 38.1226 130.584 38.8918 130.325 39.5329C130.066 40.1739 129.785 40.9432 129.677 41.2423C129.568 41.5415 129.288 42.3107 129.028 42.9518C128.769 43.5928 128.488 44.3621 128.38 44.6612C128.272 44.9604 127.991 45.7296 127.732 46.3707C127.472 47.0117 127.191 47.781 127.083 48.0801C126.975 48.3793 126.694 49.1485 126.435 49.7895C126.176 50.4306 125.895 51.1998 125.787 51.499C125.679 51.7981 125.398 52.5674 125.139 53.2084C124.879 53.8495 124.598 54.6187 124.49 54.9179C124.382 55.217 124.101 55.9863 123.842 56.6273C123.583 57.2684 123.302 58.0376 123.194 58.3368C123.086 58.6359 122.805 59.4052 122.545 60.0462C122.286 60.6873 122.005 61.4565 121.897 61.7557C121.789 62.0548 121.508 62.8241 121.249 63.4651C120.99 64.1061 120.709 64.8754 120.601 65.1745C120.384 65.7942 119.952 66.9267 119.304 68.5934C119.045 69.2345 118.764 70.0037 118.656 70.3029C118.548 70.602 118.267 71.3713 118.007 72.0123C117.748 72.6534 117.467 73.4226 117.359 73.7218C117.251 74.0209 116.97 74.7902 116.711 75.4312C116.452 76.0722 116.149 76.9056 116.041 77.2902C115.868 77.8458 115.285 78.38 115.069 78.1663C115.047 78.1236 114.917 73.2517 114.788 67.3113C114.658 61.371 114.485 55.794 114.42 54.8965C114.269 53.0375 114.269 53.0161 115.998 51.2212C116.581 50.6015 117.532 49.5759 118.115 48.9348C118.677 48.2938 120.19 46.6484 121.443 45.3023C122.697 43.9561 124.317 42.2253 125.031 41.456C125.744 40.6868 127.17 39.1269 128.207 38.0158C129.244 36.8832 130.498 35.5157 130.995 34.9815C131.967 33.8917 132.378 33.7208 132.205 34.4473Z" fill="black"/>
<path d="M161.443 31.99C160.449 32.6737 160.168 33.1866 160.146 34.2336C160.146 35.067 160.276 35.3875 160.816 36.0072C161.443 36.7123 161.573 36.755 162.761 36.755C163.863 36.755 164.123 36.6696 164.728 36.1354C165.376 35.5584 165.441 35.3875 165.441 34.2977C165.441 33.1652 165.376 33.037 164.641 32.3532C163.971 31.7549 163.647 31.6267 162.891 31.6267C162.372 31.6267 161.746 31.7763 161.443 31.99ZM164.641 34.1054C164.706 34.896 164.425 35.3234 163.971 35.1311C163.582 34.9815 163.453 34.1909 163.82 34.1909C163.95 34.1909 164.036 33.9986 164.036 33.7421C164.036 33.0584 164.576 33.3789 164.641 34.1054ZM161.508 34.0199C161.659 34.5114 161.529 34.8319 161.205 34.8319C161.097 34.8319 161.011 34.5328 161.011 34.1909C161.011 33.443 161.335 33.3362 161.508 34.0199ZM163.345 35.7294C163.28 35.8789 163.064 36.0072 162.848 36.0072C162.632 36.0072 162.415 35.8789 162.372 35.7294C162.307 35.5798 162.48 35.473 162.848 35.473C163.215 35.473 163.388 35.5798 163.345 35.7294ZM38.4852 92.3547C36.173 92.9102 35.8489 96.0941 37.9882 97.0984C39.436 97.7822 41.0352 97.2907 41.7267 95.9445C42.3101 94.8334 42.2669 94.4487 41.5322 93.4444C40.7974 92.4615 39.717 92.0555 38.4852 92.3547ZM38.2259 95.0043C38.1827 95.4744 38.0747 95.8163 37.945 95.7736C37.6209 95.6881 37.448 94.812 37.6641 94.2564C37.945 93.4872 38.3124 94 38.2259 95.0043ZM39.5225 94.0428C39.4793 94.171 39.3496 94.2564 39.2416 94.2564C39.1335 94.2564 39.0039 94.171 38.9606 94.0428C38.9174 93.9145 39.0471 93.8077 39.2416 93.8077C39.4361 93.8077 39.5657 93.9145 39.5225 94.0428ZM41.0784 94.8761C41.0784 95.0684 40.9487 95.3889 40.7974 95.6026C40.5597 95.9231 40.4733 95.9445 40.2572 95.6881C40.0843 95.453 40.0627 95.1753 40.2356 94.5556C40.4517 93.765 40.4949 93.7436 40.7758 94.1282C40.9487 94.3419 41.0784 94.6838 41.0784 94.8761ZM39.4793 96.2864C39.3712 96.5642 39.2632 96.5855 39.0903 96.4146C38.9606 96.2864 38.9174 96.03 39.0039 95.8163C39.1119 95.5385 39.22 95.5171 39.3928 95.6881C39.5225 95.8163 39.5657 96.0727 39.4793 96.2864ZM117.36 132.249C116.02 132.441 113.729 133.616 112.67 134.642C111.633 135.625 110.466 137.334 109.969 138.574C109.429 139.941 108.932 141.758 108.932 142.441C108.932 143.339 108.608 143.766 108.435 143.125C108.349 142.869 108.284 142.42 108.284 142.185C108.284 141.48 107.657 139.557 107.03 138.253C105.95 136.052 103.703 134.108 101.261 133.274C100.31 132.954 99.4455 132.911 94.7779 132.954L89.3755 133.018L89.2458 133.659C89.1594 134.001 89.0946 140.048 89.073 147.057L89.0514 159.835L89.6132 159.963C89.9373 160.049 92.3792 160.049 95.0804 159.985C100.461 159.856 101.217 159.707 103.292 158.361C106.036 156.608 107.463 154.066 108.392 149.3C108.543 148.553 108.932 148.745 108.932 149.578C108.932 150.647 109.71 153.467 110.402 154.942C111.59 157.463 113.448 159.108 116.171 160.091C117.684 160.647 121.185 160.626 122.827 160.07C125.831 159.044 127.884 156.779 129.159 153.104C129.569 151.865 130.109 148.018 130.109 146.266C130.088 143.488 129.353 139.642 128.51 137.826C126.436 133.403 122.632 131.501 117.36 132.249ZM119.845 138.937C120.817 139.364 121.206 140.475 121.466 143.617C121.66 145.775 121.66 147.078 121.466 149.023C121.12 152.442 120.601 153.425 119.175 153.425C118.548 153.425 118.354 153.296 117.943 152.634C116.863 150.796 116.431 146.266 117.036 142.719C117.468 140.048 117.986 139.108 119.24 138.702C119.261 138.681 119.542 138.787 119.845 138.937ZM98.4947 140.39C99.3807 140.924 99.748 141.608 100.159 143.638C100.699 146.159 100.548 149.194 99.7913 151.437C99.4887 152.335 97.8464 153.66 97.479 153.296C97.263 153.083 97.1549 140.54 97.371 140.176C97.5655 139.877 97.7168 139.899 98.4947 140.39ZM57.2855 132.655C54.7355 133.595 53.1797 135.133 52.4449 137.463C52.1424 138.424 51.8831 137.42 51.8831 135.24V132.911H44.1037V141.993C44.1037 149.792 44.0605 151.181 43.7579 151.907C43.2609 153.147 42.3101 153.382 41.3593 152.506C40.8839 152.078 40.8623 151.95 40.8623 148.104C40.8623 145.924 40.7974 141.608 40.711 138.531L40.5814 132.911H24.6552V142.719C24.6552 152.057 24.6336 152.548 24.2446 153.019C23.8989 153.446 23.6395 153.531 22.8616 153.489C22.3214 153.467 21.6299 153.296 21.3273 153.104C20.2469 152.399 20.1172 152.677 20.1172 155.946C20.1172 159.386 20.0956 159.365 22.2565 160.049C26.9674 161.523 31.5486 158.98 32.413 154.386C32.6507 153.168 32.8019 152.997 32.9748 153.766C33.2774 155.091 33.8392 156.352 34.6171 157.378C35.6544 158.745 36.5188 159.301 38.7013 160.07C40.3653 160.647 44.3198 160.647 46.243 160.049C48.7281 159.279 50.7162 157.335 51.278 155.177C51.6022 153.852 51.9479 154.365 51.9911 156.245C52.0128 157.1 52.056 157.955 52.056 158.147C52.0992 158.553 53.7415 159.472 55.4703 160.049C57.1342 160.626 60.0083 160.626 61.737 160.07C63.5954 159.472 64.4166 159.002 65.4971 157.933C66.7936 156.651 67.3555 155.54 67.8093 153.36C68.155 151.672 68.155 151.523 67.7877 150.006C67.161 147.441 66.383 146.501 61.737 142.463C60.5917 141.437 60.3108 141.095 60.3108 140.582C60.3108 139.728 61.1752 138.894 62.0179 138.894C62.8391 138.894 64.8488 139.621 65.5619 140.176C66.2102 140.689 66.5559 140.711 66.8801 140.262C67.1178 139.941 68.3063 139.856 71.2236 139.963C71.5045 139.963 71.5477 141.266 71.5909 149.835L71.6558 159.728H79.4352L79.5 150.006C79.5216 144.386 79.6296 140.219 79.7593 140.091C79.8673 139.984 80.7317 139.92 81.6825 139.941C83.2168 139.984 83.4329 139.941 83.649 139.557C83.7787 139.279 83.8651 137.975 83.8219 136.074L83.757 133.018L75.5238 132.954C68.3927 132.911 67.2474 132.954 67.0097 133.232C66.6856 133.616 66.0805 133.638 65.4754 133.317C63.617 132.334 59.1439 131.971 57.2855 132.655ZM52.5314 143.082C52.5314 144.023 54.0008 145.796 57.1126 148.574C59.2519 150.497 59.7273 151.245 59.4032 152.185C58.9062 153.574 57.0694 153.852 54.9516 152.826C53.1797 151.95 52.2289 151.416 52.056 151.181C51.8615 150.924 51.8183 142.869 52.0128 142.676C52.2289 142.484 52.5314 142.719 52.5314 143.082ZM134.755 133.189C134.691 133.317 134.669 139.364 134.691 146.587L134.755 159.728L138.71 159.792L142.643 159.835V149.963C142.643 144.514 142.729 139.963 142.816 139.813C142.924 139.642 143.097 139.621 143.291 139.749C143.464 139.877 144.523 139.963 145.603 139.963H147.613L147.656 149.835L147.721 159.728L151.481 159.792C153.556 159.814 155.328 159.771 155.436 159.664C155.544 159.557 155.63 155.113 155.608 149.706V139.963H157.424C159.995 139.963 159.952 140.027 159.887 136.159L159.822 133.018L147.332 132.975C137.608 132.933 134.82 132.975 134.755 133.189Z" fill="black"/>
<path d="M159.087 151.971C158.115 152.249 157.186 152.933 156.624 153.852C156.256 154.429 156.17 154.92 156.17 156.138C156.17 157.506 156.235 157.784 156.818 158.596C157.726 159.878 158.871 160.476 160.427 160.476C162.004 160.476 163.171 159.92 164.036 158.724C164.619 157.933 164.684 157.698 164.684 156.117C164.684 154.407 164.662 154.365 163.82 153.382C162.566 151.95 160.902 151.437 159.087 151.971Z" fill="black"/>
</g>
</svg>
