<svg width="24" height="25" viewBox="0 0 24 25" fill="none" xmlns="http://www.w3.org/2000/svg">
<path d="M5.0002 4.5H19.0002C19.2835 4.5 19.5212 4.596 19.7132 4.788C19.9052 4.98 20.0009 5.21733 20.0002 5.5C19.9995 5.78267 19.9035 6.02033 19.7122 6.213C19.5209 6.40567 19.2835 6.50133 19.0002 6.5H5.0002C4.71686 6.5 4.47953 6.404 4.2882 6.212C4.09686 6.02 4.00086 5.78267 4.0002 5.5C3.99953 5.21733 4.09553 4.98 4.2882 4.788C4.48086 4.596 4.7182 4.5 5.0002 4.5ZM5.0002 20.5C4.71686 20.5 4.47953 20.404 4.2882 20.212C4.09686 20.02 4.00086 19.7827 4.0002 19.5V14.5H3.8252C3.50853 14.5 3.2502 14.379 3.0502 14.137C2.8502 13.895 2.78353 13.616 2.8502 13.3L3.8502 8.3C3.9002 8.06667 4.01686 7.875 4.2002 7.725C4.38353 7.575 4.59186 7.5 4.8252 7.5H19.1752C19.4085 7.5 19.6169 7.575 19.8002 7.725C19.9835 7.875 20.1002 8.06667 20.1502 8.3L21.1502 13.3C21.2169 13.6167 21.1502 13.8957 20.9502 14.137C20.7502 14.3783 20.4919 14.4993 20.1752 14.5H20.0002V19.5C20.0002 19.7833 19.9042 20.021 19.7122 20.213C19.5202 20.405 19.2829 20.5007 19.0002 20.5C18.7175 20.4993 18.4802 20.4033 18.2882 20.212C18.0962 20.0207 18.0002 19.7833 18.0002 19.5V14.5H14.0002V19.5C14.0002 19.7833 13.9042 20.021 13.7122 20.213C13.5202 20.405 13.2829 20.5007 13.0002 20.5H5.0002ZM6.0002 18.5H12.0002V14.5H6.0002V18.5Z" fill="#497AA5"/>
</svg>
