<svg width="47" height="32" viewBox="0 0 47 32" fill="none" xmlns="http://www.w3.org/2000/svg">
<g clip-path="url(#clip0_335_999)">
<path d="M11.1825 0.226046C11.1401 0.267803 11.082 0.377416 11.0449 0.47659C11.0079 0.570544 10.9444 0.737574 10.9021 0.841967C10.7117 1.34828 10.6641 1.47355 10.5847 1.67712C10.5371 1.80239 10.4683 1.98508 10.4313 2.08425C10.3943 2.18342 10.3202 2.37133 10.2726 2.50182C10.225 2.63232 10.1509 2.82544 10.1086 2.92984C10.0663 3.03945 10.0028 3.21692 9.96052 3.32131C9.9182 3.43093 9.84943 3.61883 9.80182 3.73889C9.69603 4.02597 9.57965 4.32871 9.48443 4.57403C9.44211 4.68365 9.36806 4.87677 9.32045 5.00727C9.27284 5.13776 9.19878 5.33089 9.15646 5.43528C9.11415 5.54489 9.05067 5.72236 9.00835 5.82676C8.96603 5.93637 8.89726 6.12428 8.84966 6.24433C8.80205 6.3696 8.73328 6.55751 8.69096 6.6619C8.64864 6.77152 8.57458 6.96464 8.52698 7.09514C8.47937 7.22563 8.40531 7.41354 8.36828 7.51271C8.33125 7.61188 8.2572 7.79979 8.20959 7.93028C8.16198 8.06078 8.08792 8.2539 8.0456 8.3583C7.95039 8.60884 7.83401 8.91158 7.72821 9.19344C7.68061 9.31872 7.61184 9.50141 7.57481 9.60058C7.53778 9.69975 7.4743 9.87722 7.42669 9.99205C7.38438 10.1069 7.30503 10.3052 7.25742 10.4357C7.14105 10.7332 7.02467 11.036 6.94003 11.2709C6.903 11.37 6.83424 11.5527 6.78663 11.6728C6.73902 11.7981 6.66496 11.9964 6.61735 12.1165C6.56975 12.2417 6.51156 12.3827 6.48511 12.4296C6.45866 12.4818 6.4375 12.5706 6.4375 12.628C6.4375 12.7324 6.46924 12.7324 7.90807 12.7324H9.38393L9.4474 12.5862C9.48443 12.5079 9.61139 12.2 9.72776 11.8972C9.84414 11.5945 9.98696 11.2291 10.0452 11.0882C10.1033 10.942 10.1721 10.7541 10.1933 10.6706C10.2462 10.4879 10.3096 10.3209 10.6694 9.41789C10.8175 9.04207 10.9603 8.66626 10.9867 8.58274C11.0608 8.33742 11.2036 7.9616 11.2459 7.90419C11.2724 7.87809 11.3041 7.78413 11.3253 7.70062C11.3517 7.59101 11.3782 7.56491 11.4205 7.60666C11.4787 7.66408 11.4522 8.06078 11.2195 11.1404C11.1719 11.7406 11.1454 12.3409 11.156 12.4714L11.1719 12.7063L12.6795 12.7219C13.51 12.7272 14.24 12.7219 14.3035 12.7063C14.3669 12.6906 14.4357 12.628 14.4516 12.5601C14.4939 12.4192 14.7795 11.6676 14.8748 11.4536C14.9118 11.3648 14.9541 11.25 14.97 11.1926C14.9858 11.1352 15.044 10.9681 15.1022 10.8272C15.1551 10.6811 15.3297 10.2374 15.4778 9.83546C15.6312 9.43355 15.7899 9.03685 15.8322 8.95856C15.8745 8.87504 15.9063 8.77587 15.9063 8.73933C15.9063 8.69758 15.9433 8.57752 15.9909 8.46791C16.1231 8.17561 16.3242 7.67452 16.4617 7.30392C16.4987 7.20475 16.5728 7.01684 16.6204 6.88635C16.668 6.75586 16.7421 6.56795 16.7791 6.46878C16.8161 6.3696 16.8849 6.18691 16.9325 6.06164C16.9801 5.94159 17.0542 5.74846 17.0965 5.63363C17.1388 5.51879 17.2128 5.33089 17.2552 5.21605C17.2975 5.10122 17.3715 4.91331 17.4139 4.79848C17.4562 4.68365 17.5302 4.49574 17.5726 4.38091C17.6149 4.26607 17.6889 4.07816 17.7313 3.96333C17.7736 3.8485 17.8476 3.66059 17.8899 3.54576C17.9323 3.43093 18.0063 3.2378 18.0539 3.11253C18.1015 2.99247 18.1703 2.80978 18.2073 2.71061C18.2814 2.51226 18.3872 2.2304 18.5194 1.8859C18.567 1.76585 18.6411 1.57272 18.6834 1.45789C18.8474 1.01944 18.9373 0.80021 19.0114 0.617521C19.0537 0.513128 19.0802 0.372197 19.0696 0.304341L19.0537 0.179069L17.7577 0.16341C17.0436 0.15297 16.3876 0.16341 16.2977 0.179069C16.1231 0.210387 16.1284 0.189508 15.6682 1.40569C15.6259 1.52052 15.5518 1.70843 15.5095 1.82327C15.4672 1.9381 15.3984 2.12079 15.3561 2.22518C15.3138 2.33479 15.245 2.5227 15.1974 2.64275C15.1498 2.76803 15.0758 2.96637 15.0282 3.08643C14.8642 3.51444 14.8007 3.67625 14.6367 4.11992C14.3352 4.91331 14.3087 4.98117 14.24 5.13776C14.2029 5.22127 14.1553 5.34133 14.1395 5.39352C14.1183 5.45616 14.0866 5.47704 14.0548 5.44572C14.0231 5.4144 14.0337 5.1221 14.0813 4.64189C14.1236 4.22432 14.1606 3.69713 14.1606 3.46746C14.1606 3.2378 14.1977 2.68451 14.2347 2.24084C14.3246 1.26998 14.3564 0.309561 14.3035 0.215607C14.24 0.116433 11.2883 0.126872 11.1825 0.226046ZM19.5351 0.252144C19.4875 0.304341 19.424 0.413954 19.3975 0.497469C19.3764 0.580984 19.3023 0.779331 19.2388 0.935921C19.1754 1.09251 19.1066 1.28042 19.0802 1.3535C19.0537 1.42657 18.9849 1.61448 18.9215 1.77107C18.858 1.92766 18.7892 2.11557 18.7628 2.18864C18.7363 2.26172 18.6675 2.44963 18.6041 2.60622C18.5406 2.76281 18.4718 2.95072 18.4454 3.02379C18.4189 3.09687 18.3502 3.28477 18.2867 3.44136C18.2232 3.59795 18.1544 3.78586 18.128 3.85894C18.1015 3.93201 18.0328 4.11992 17.9693 4.27651C17.9058 4.4331 17.837 4.62101 17.8106 4.69409C17.7841 4.76716 17.7154 4.95507 17.6519 5.11166C17.5884 5.26825 17.5197 5.45616 17.4932 5.52923C17.4668 5.60231 17.398 5.79022 17.3345 5.94681C17.271 6.1034 17.2023 6.29131 17.1758 6.36438C17.1494 6.43746 17.0806 6.62537 17.0171 6.78196C16.9536 6.93855 16.8849 7.12645 16.8584 7.19953C16.832 7.2726 16.7632 7.46051 16.6997 7.6171C16.541 8.02424 16.4352 8.30088 16.3823 8.45225C16.3559 8.52533 16.2871 8.71323 16.2237 8.86982C16.1602 9.02641 16.0914 9.21432 16.065 9.2874C16.0385 9.36047 15.9697 9.54838 15.9063 9.70497C15.8428 9.86156 15.774 10.0495 15.7476 10.1225C15.7211 10.1956 15.6524 10.3835 15.5889 10.5401C15.5254 10.6967 15.4566 10.8846 15.4302 10.9577C15.4037 11.0308 15.335 11.2187 15.2715 11.3753C15.208 11.5319 15.1392 11.7198 15.1128 11.7928C15.0863 11.8659 15.0176 12.0538 14.9541 12.2104C14.7372 12.7533 14.6103 12.7063 16.2871 12.7219L17.7524 12.7324L17.8423 12.5654C17.8899 12.4766 17.9481 12.3409 17.9693 12.2678C17.9957 12.1948 18.0645 12.0016 18.128 11.845C18.1915 11.6884 18.2602 11.5005 18.2867 11.4275C18.3131 11.3544 18.3819 11.1665 18.4454 11.0099C18.5089 10.8533 18.5776 10.6654 18.6041 10.5923C18.6305 10.5192 18.6993 10.3313 18.7628 10.1747C18.8262 10.0182 18.895 9.83025 18.9215 9.75717C18.9479 9.68409 19.0167 9.49619 19.0802 9.3396C19.1436 9.18301 19.2124 8.9951 19.2388 8.92202C19.2653 8.84895 19.3341 8.66104 19.3975 8.50445C19.461 8.34786 19.5298 8.15995 19.5562 8.08687C19.5827 8.0138 19.6515 7.82589 19.7149 7.6693C19.7784 7.51271 19.8472 7.3248 19.8736 7.25173C19.9001 7.17865 19.9688 6.99074 20.0323 6.83415C20.0958 6.67756 20.1646 6.48965 20.191 6.41658C20.2175 6.3435 20.2862 6.15559 20.3497 5.999C20.4132 5.84241 20.482 5.65451 20.5084 5.58143C20.5349 5.50836 20.6036 5.32045 20.6671 5.16386C20.7306 5.00727 20.7993 4.81936 20.8258 4.74628C20.8522 4.67321 20.921 4.4853 20.9845 4.32871C21.048 4.17212 21.1167 3.98421 21.1432 3.91114C21.1696 3.83806 21.2384 3.65015 21.3019 3.49356C21.3654 3.33697 21.4341 3.14906 21.4606 3.07599C21.487 3.00291 21.5558 2.815 21.6193 2.65841C21.6827 2.50182 21.7515 2.31392 21.778 2.24084C21.8044 2.16776 21.8732 1.97986 21.9367 1.82327C22.0001 1.66668 22.0689 1.47877 22.0953 1.40569C22.1218 1.33262 22.1906 1.14471 22.254 0.988118C22.5132 0.330439 22.5344 0.246925 22.4551 0.199948C22.418 0.173849 21.7674 0.15297 21.0056 0.15297C19.7255 0.15297 19.6197 0.15819 19.5351 0.252144Z" fill="black"/>
<path d="M23.0208 0.288788C22.9731 0.367083 22.9097 0.487135 22.8885 0.56543C22.8621 0.638506 22.7933 0.831634 22.7298 0.988224C22.6663 1.14481 22.5976 1.33272 22.5711 1.4058C22.5447 1.47887 22.4759 1.66678 22.4124 1.82337C22.3489 1.97996 22.2749 2.17831 22.2484 2.26704C22.222 2.35056 22.1797 2.47061 22.1532 2.52803C22.1268 2.58544 21.9945 2.93516 21.857 3.31098C21.7195 3.68158 21.5872 4.03651 21.5608 4.09393C21.5343 4.15135 21.492 4.26618 21.4655 4.35491C21.4391 4.43843 21.365 4.642 21.3016 4.79859C21.2381 4.95518 21.1693 5.14309 21.1429 5.21616C21.1164 5.28924 21.0477 5.47714 20.9842 5.63374C20.9207 5.79033 20.8519 5.97823 20.8255 6.05131C20.799 6.12438 20.7303 6.31229 20.6668 6.46888C20.6033 6.62547 20.5345 6.81338 20.5081 6.88646C20.4816 6.95953 20.4129 7.14744 20.3494 7.30403C20.2859 7.46062 20.2171 7.64853 20.1907 7.72161C20.1643 7.79468 20.0955 7.98259 20.032 8.13918C19.8733 8.54631 19.7675 8.82296 19.7146 8.97433C19.6882 9.0474 19.6194 9.23531 19.5559 9.3919C19.4924 9.54849 19.4237 9.7364 19.3972 9.80947C19.3708 9.88255 19.302 10.0705 19.2385 10.227C19.1803 10.3836 19.0798 10.6551 19.0217 10.8273C18.9635 10.9996 18.8947 11.1875 18.8682 11.2449C18.8418 11.3023 18.7572 11.5111 18.6831 11.7147C18.609 11.913 18.5297 12.127 18.5033 12.1844C18.2388 12.7847 18.1171 12.7325 19.8151 12.7325C21.2857 12.7325 21.2963 12.7325 21.3756 12.6177C21.4232 12.555 21.4603 12.4611 21.4603 12.4141C21.4603 12.3619 21.492 12.2575 21.5343 12.174C21.5766 12.0957 21.6507 11.9287 21.693 11.8034C21.7406 11.6833 21.8147 11.4902 21.857 11.3754C21.8993 11.2605 21.9681 11.0779 22.0104 10.9682C22.0527 10.8638 22.1215 10.6759 22.1691 10.5507C22.2167 10.4306 22.2855 10.2427 22.3278 10.1331C22.3701 10.0287 22.5129 9.6581 22.6505 9.31361C22.7827 8.96911 22.9255 8.60373 22.9679 8.50456C23.2323 7.83122 23.28 7.72682 23.317 7.78424C23.3329 7.82078 23.3699 8.70812 23.391 9.75728C23.4122 10.8064 23.4439 11.8973 23.4651 12.1844L23.4968 12.7064L25.4541 12.7325L27.4113 12.7586L27.1521 12.8734C27.0093 12.9413 26.8559 12.9935 26.8083 12.9935C26.7554 12.9935 26.6125 13.0248 26.4803 13.0666C26.3533 13.1031 26.0941 13.1814 25.9037 13.2284C25.507 13.3328 25.0785 13.4476 24.7399 13.5415C24.6077 13.5781 24.3485 13.6459 24.1581 13.6929C23.9676 13.7451 23.682 13.8182 23.5233 13.8599C22.9996 14.0009 22.6558 14.0948 22.3701 14.1679C22.0527 14.2566 21.6401 14.3663 21.2328 14.4759C21.0847 14.5176 20.8043 14.5907 20.6139 14.6377C20.4235 14.6899 20.1643 14.7577 20.032 14.7943C19.8998 14.8308 19.6406 14.8987 19.4501 14.9509C19.2597 15.0031 19.0005 15.0709 18.8682 15.1074C18.736 15.144 18.4768 15.2118 18.2864 15.264C18.0959 15.311 17.8103 15.3841 17.6516 15.4311C17.4929 15.4728 17.2337 15.5407 17.0803 15.5824C16.673 15.692 16.2604 15.8017 15.943 15.8852C15.7949 15.9269 15.5145 16 15.3241 16.047C15.1336 16.0992 14.8744 16.167 14.7422 16.2036C14.6099 16.2401 14.3507 16.308 14.1603 16.3602C13.7424 16.4698 13.3139 16.5846 12.9966 16.6733C12.8643 16.7099 12.6051 16.7777 12.4147 16.8299C12.2242 16.8769 11.9545 16.95 11.8063 16.9865C10.9388 17.2162 10.7537 17.2423 9.76976 17.2371C8.7647 17.2371 8.63245 17.2214 7.78608 16.9604C7.61152 16.9082 7.32058 16.783 7.13544 16.689C6.95029 16.5951 6.7387 16.4854 6.65935 16.4437C6.58001 16.4019 6.28907 16.1462 6.014 15.8695C5.62784 15.4833 5.46914 15.2797 5.31574 14.977C4.96132 14.2514 4.84495 13.7921 4.81321 12.9674C4.78676 12.2993 4.89256 11.5267 5.11473 10.7751C5.17821 10.5715 5.24697 10.3367 5.27342 10.2531C5.34748 10.0026 5.46386 9.7103 5.69132 9.18833C6.02987 8.42104 5.97697 8.45236 5.13589 9.48064C4.09379 10.7595 3.38496 11.7251 2.51214 13.0718C2.38518 13.2701 2.25823 13.4737 2.24236 13.5154C2.2212 13.5572 2.15772 13.6616 2.09953 13.7503C1.99374 13.9174 1.94084 14.0061 1.68164 14.4811C1.08389 15.5616 0.665992 16.5063 0.433241 17.2997C0.226938 17.9939 0.200489 18.0983 0.121141 18.5002C-0.000524275 19.1162 0.0100554 20.2749 0.142301 20.7447C0.359183 21.5224 0.576066 21.9191 1.06273 22.4306C1.57055 22.9578 2.61264 23.6729 3.08344 23.8139C3.14163 23.8295 3.31619 23.8922 3.47488 23.9496C4.21017 24.2262 4.64393 24.2889 5.8553 24.2889C7.00319 24.2889 7.26768 24.2575 8.20927 24.0279C8.73825 23.8974 9.53172 23.6677 9.76976 23.579C9.83853 23.5529 10.0395 23.485 10.2194 23.4276C10.394 23.3702 10.7166 23.2501 10.9335 23.1614C11.1504 23.0779 11.4255 22.9683 11.5419 22.9265C11.6582 22.8795 11.8275 22.8169 11.9121 22.7751C12.0021 22.7386 12.5099 22.5298 13.0494 22.3106C14.2291 21.8252 14.2873 21.7991 14.557 21.6842C14.6734 21.6373 14.848 21.5642 14.9432 21.5224C15.0331 21.4807 15.1971 21.4128 15.2976 21.3711C15.5304 21.2667 15.8002 21.1518 16.0382 21.0579C16.1387 21.0161 16.308 20.943 16.4085 20.9013C16.6888 20.7865 16.9428 20.6821 17.1649 20.5829C17.2707 20.5359 17.4347 20.4681 17.5193 20.4315C17.9055 20.2749 18.2917 20.1131 18.6302 19.967C18.7466 19.9148 18.9159 19.8417 19.0005 19.8052C19.0904 19.7686 19.2491 19.7008 19.3549 19.6538C19.5771 19.5546 19.831 19.4502 20.1114 19.3354C20.5451 19.1527 20.7514 19.064 21.3703 18.7925C21.5661 18.7038 21.7459 18.6307 21.7724 18.6307C21.7988 18.6307 21.8993 18.589 21.9998 18.542C22.2537 18.4167 22.1426 18.4637 24.7135 17.378C26.0201 16.8247 27.1256 16.3549 27.1733 16.3341C27.332 16.261 27.6282 16.1357 27.9138 16.0209C28.0725 15.9583 28.337 15.8486 28.4957 15.7756C28.9718 15.5616 29.1199 15.4989 29.3156 15.4206C29.7018 15.2588 30.199 15.0448 30.3471 14.977C30.3948 14.9561 31.3311 14.5542 32.4366 14.0896C33.5422 13.6251 34.4785 13.2231 34.5261 13.2023C34.616 13.1553 34.9175 13.03 35.1767 12.9256C35.3725 12.8421 35.7322 12.6855 35.8486 12.6281C35.8962 12.6072 36.9171 12.174 38.1232 11.6625C39.3293 11.1509 40.3502 10.7177 40.3978 10.6968C40.4719 10.6603 40.5988 10.6029 41.0326 10.4254C41.26 10.3314 41.6145 10.1749 41.7255 10.1227C41.7679 10.1018 42.3762 9.84079 43.0744 9.54849C43.7674 9.25619 44.3599 8.99521 44.3916 8.96911C44.4181 8.94301 44.471 8.92213 44.508 8.92213C44.545 8.92213 44.7302 8.84906 44.91 8.76554C45.0951 8.67681 45.2644 8.60895 45.2856 8.60895C45.3015 8.60895 45.4813 8.53587 45.677 8.44714C45.8728 8.35319 46.1055 8.24879 46.1901 8.21225C46.8672 7.91995 46.9995 7.83644 46.9307 7.72161C46.8831 7.64853 46.735 7.65375 46.4123 7.7477C46.0685 7.8521 45.7088 7.94605 45.2644 8.06088C45.074 8.11308 44.8148 8.18094 44.6825 8.21747C44.5503 8.25401 44.2911 8.32187 44.1007 8.37406C43.9102 8.42626 43.651 8.49412 43.5188 8.53065C43.3865 8.56719 43.1273 8.63505 42.9369 8.68725C42.7465 8.73422 42.4661 8.8073 42.318 8.84906C42.1646 8.89081 41.9107 8.95345 41.7626 8.99521C41.6092 9.03696 41.3288 9.11004 41.1384 9.15702C40.9479 9.20921 40.6782 9.28229 40.53 9.31883C39.7419 9.53805 39.2235 9.67898 38.8109 9.78338C38.6204 9.83557 38.3612 9.90343 38.229 9.93997C38.0967 9.97651 37.8375 10.0444 37.6471 10.0966C37.4567 10.1488 37.1975 10.2166 37.0652 10.2531C36.933 10.2897 36.6738 10.3575 36.4833 10.4097C36.2929 10.4567 36.0125 10.5298 35.8644 10.5715C35.711 10.6133 35.4571 10.6759 35.309 10.7177C35.1556 10.7595 34.8752 10.8325 34.6848 10.8847C33.9865 11.0622 33.7538 11.1248 33.6374 11.1718C33.5686 11.1979 33.4681 11.2188 33.41 11.2188C33.3147 11.2188 33.3042 11.1979 33.3359 11.0465C33.3571 10.9578 33.4047 10.8221 33.4417 10.749C33.4787 10.6759 33.521 10.5611 33.5263 10.488L33.5475 10.3575L31.9129 10.3419C30.8814 10.3367 30.2519 10.3106 30.2096 10.274C30.1673 10.2375 30.1567 10.1801 30.1885 10.0809C30.3419 9.60591 30.8867 8.17572 31.0613 7.78424C31.1036 7.69029 31.1406 7.57023 31.1406 7.51282C31.1406 7.46062 31.1935 7.37711 31.257 7.33535C31.3575 7.26227 31.5903 7.25183 32.7329 7.25183C34.2457 7.25183 34.1611 7.27271 34.2881 6.87602C34.3304 6.75075 34.4097 6.52108 34.4732 6.36449C34.907 5.24748 34.9652 5.07523 34.9334 4.9865C34.9017 4.91342 34.7483 4.90298 33.5739 4.90298C32.5107 4.90298 32.2409 4.88732 32.2197 4.82991C32.1933 4.76205 32.6747 3.40493 32.9709 2.72116C33.0132 2.6272 33.045 2.51759 33.045 2.47061C33.045 2.32446 33.32 2.29314 34.743 2.29314H36.1659L36.2506 2.0948C36.2982 1.9904 36.3564 1.84425 36.3775 1.77118C36.404 1.6981 36.4728 1.51019 36.5362 1.3536C36.5997 1.19701 36.6685 1.0091 36.6949 0.936027C36.7214 0.862952 36.7901 0.680263 36.8483 0.523673C36.9065 0.367083 36.9435 0.226152 36.9277 0.210493C36.9118 0.194834 34.8699 0.173955 32.3837 0.163516C28.136 0.153076 27.8662 0.158296 27.7657 0.241811C27.6599 0.335765 25.946 2.35578 25.5863 2.81511C25.4858 2.9456 25.3483 3.10741 25.2848 3.18049C25.2213 3.25356 25.0944 3.38928 25.0097 3.48323C24.8299 3.6868 24.7399 3.62416 24.8616 3.37362C24.9039 3.27966 24.978 3.10741 25.0256 2.98214C25.3324 2.17309 25.3589 2.10002 25.6657 1.3275C25.7979 0.983005 25.946 0.622847 25.9883 0.528893C26.0836 0.309666 26.0836 0.226152 25.9778 0.184394C25.9301 0.168735 25.2689 0.153076 24.5019 0.153076H23.1107L23.0208 0.288788ZM30.6487 0.842073C30.6328 0.909929 30.5693 1.09262 30.5058 1.24921C30.4424 1.4058 30.3736 1.59371 30.3471 1.66678C30.3207 1.73986 30.2519 1.92777 30.1885 2.08436C30.125 2.24095 30.0562 2.42885 30.0298 2.50193C30.0033 2.57501 29.9345 2.76291 29.8711 2.9195C29.8076 3.07609 29.7388 3.264 29.7124 3.33708C29.6859 3.41015 29.6172 3.59806 29.5537 3.75465C29.4902 3.91124 29.4214 4.09915 29.395 4.17223C29.3685 4.2453 29.2998 4.43321 29.2363 4.5898C29.1728 4.74639 29.104 4.9343 29.0776 5.00737C29.0511 5.08045 28.9824 5.26836 28.9189 5.42495C28.8554 5.58154 28.7866 5.76945 28.7602 5.84252C28.7338 5.9156 28.665 6.10351 28.6015 6.2601C28.538 6.41669 28.4693 6.60459 28.4428 6.67767C28.4164 6.75075 28.3476 6.93865 28.2841 7.09524C28.2206 7.25183 28.1519 7.43974 28.1254 7.51282C28.099 7.58589 28.0302 7.7738 27.9667 7.93039C27.9033 8.08698 27.8345 8.27489 27.808 8.34797C27.7551 8.49934 27.6493 8.77598 27.4906 9.18311C27.4272 9.3397 27.3584 9.52761 27.332 9.60069C27.3055 9.67376 27.2367 9.86167 27.1733 10.0183C27.1098 10.1749 27.041 10.3628 27.0146 10.4358C26.9881 10.5089 26.9193 10.6968 26.8559 10.8534C26.7924 11.01 26.7183 11.2136 26.6919 11.3075C26.6496 11.4432 26.5067 11.5737 26.4538 11.5215C26.4486 11.5111 26.4168 10.321 26.3851 8.86993C26.3533 7.41886 26.311 6.05653 26.2951 5.8373C26.2581 5.38319 26.2581 5.37797 26.6813 4.93952C26.8241 4.78815 27.0569 4.5376 27.1997 4.38101C27.3372 4.22442 27.7075 3.82251 28.0143 3.49367C28.3211 3.16483 28.7179 2.74204 28.8924 2.55413C29.067 2.36622 29.4161 1.98518 29.67 1.71376C29.924 1.43712 30.2308 1.10306 30.3524 0.972565C30.5905 0.706362 30.691 0.664604 30.6487 0.842073Z" fill="black"/>
<path d="M37.8063 0.241811C37.563 0.40884 37.4942 0.534112 37.4889 0.789876C37.4889 0.993444 37.5207 1.07174 37.6529 1.22311C37.8063 1.39536 37.8381 1.4058 38.129 1.4058C38.3988 1.4058 38.4623 1.38492 38.6104 1.25443C38.7691 1.1135 38.7849 1.07174 38.7849 0.805535C38.7849 0.528893 38.7691 0.497575 38.5892 0.330545C38.4252 0.184394 38.3459 0.153076 38.1607 0.153076C38.0338 0.153076 37.8804 0.189614 37.8063 0.241811ZM38.5892 0.758558C38.6051 0.951686 38.5363 1.05608 38.4252 1.0091C38.33 0.972565 38.2983 0.779437 38.3882 0.779437C38.4199 0.779437 38.4411 0.73246 38.4411 0.669824C38.4411 0.502794 38.5733 0.581089 38.5892 0.758558ZM37.8222 0.73768C37.8592 0.857732 37.8275 0.936027 37.7481 0.936027C37.7217 0.936027 37.7005 0.862952 37.7005 0.779437C37.7005 0.596748 37.7799 0.57065 37.8222 0.73768ZM38.2718 1.15525C38.256 1.19179 38.2031 1.22311 38.1502 1.22311C38.0973 1.22311 38.0444 1.19179 38.0338 1.15525C38.0179 1.11872 38.0602 1.09262 38.1502 1.09262C38.2401 1.09262 38.2824 1.11872 38.2718 1.15525ZM7.70728 14.9874C7.14127 15.1231 7.06192 15.9008 7.58562 16.1462C7.94003 16.3132 8.33148 16.1931 8.50075 15.8643C8.64358 15.5929 8.633 15.4989 8.45315 15.2536C8.27329 15.0135 8.0088 14.9143 7.70728 14.9874ZM7.6438 15.6346C7.63322 15.7495 7.60678 15.833 7.57504 15.8225C7.49569 15.8017 7.45337 15.5877 7.50627 15.4519C7.57504 15.264 7.66496 15.3893 7.6438 15.6346ZM7.96119 15.3997C7.95061 15.4311 7.91887 15.4519 7.89243 15.4519C7.86598 15.4519 7.83424 15.4311 7.82366 15.3997C7.81308 15.3684 7.84482 15.3423 7.89243 15.3423C7.94003 15.3423 7.97177 15.3684 7.96119 15.3997ZM8.34206 15.6033C8.34206 15.6503 8.31032 15.7286 8.27329 15.7808C8.2151 15.8591 8.19394 15.8643 8.14105 15.8017C8.09873 15.7442 8.09344 15.6764 8.13576 15.525C8.18865 15.3319 8.19923 15.3267 8.268 15.4206C8.31032 15.4728 8.34206 15.5563 8.34206 15.6033ZM7.95061 15.9478C7.92416 16.0157 7.89772 16.0209 7.8554 15.9791C7.82366 15.9478 7.81308 15.8852 7.83424 15.833C7.86069 15.7651 7.88714 15.7599 7.92945 15.8017C7.96119 15.833 7.97177 15.8956 7.95061 15.9478ZM27.0151 24.7325C26.6871 24.7795 26.1264 25.0666 25.8672 25.3171C25.6133 25.5572 25.3277 25.9748 25.206 26.2775C25.0737 26.6116 24.9521 27.0553 24.9521 27.2223C24.9521 27.4415 24.8727 27.5459 24.8304 27.3893C24.8093 27.3267 24.7934 27.2171 24.7934 27.1597C24.7934 26.9874 24.64 26.5176 24.4866 26.1992C24.2221 25.6616 23.6719 25.1866 23.0742 24.9831C22.8414 24.9048 22.6298 24.8943 21.4872 24.9048L20.1648 24.9204L20.1331 25.077C20.1119 25.1605 20.096 26.6377 20.0907 28.3498L20.0854 31.4711L20.223 31.5024C20.3023 31.5233 20.9001 31.5233 21.5613 31.5077C22.8785 31.4763 23.0636 31.4398 23.5714 31.111C24.2432 30.6829 24.5924 30.0618 24.8198 28.8978C24.8569 28.7151 24.9521 28.7621 24.9521 28.9657C24.9521 29.2267 25.1425 29.9157 25.3118 30.2758C25.6027 30.8917 26.0576 31.2936 26.7242 31.5338C27.0944 31.6695 27.9514 31.6642 28.3534 31.5285C29.0887 31.278 29.5912 30.7247 29.9033 29.8269C30.0038 29.5242 30.1361 28.5846 30.1361 28.1566C30.1308 27.4781 29.9509 26.5385 29.7446 26.0949C29.2368 25.0144 28.3058 24.5498 27.0151 24.7325ZM27.6234 26.3663C27.8615 26.4707 27.9567 26.7421 28.0202 27.5094C28.0678 28.0366 28.0678 28.355 28.0202 28.83C27.9355 29.6651 27.8086 29.9052 27.4594 29.9052C27.306 29.9052 27.2584 29.8739 27.1579 29.7121C26.8934 29.2632 26.7876 28.1566 26.9358 27.2902C27.0416 26.6377 27.1685 26.408 27.4753 26.3089C27.4806 26.3036 27.5494 26.3297 27.6234 26.3663ZM22.3971 26.7212C22.614 26.8517 22.7039 27.0187 22.8044 27.5146C22.9367 28.1305 22.8996 28.8717 22.7145 29.4198C22.6404 29.639 22.2384 29.9626 22.1485 29.8739C22.0956 29.8217 22.0691 26.7578 22.122 26.669C22.1696 26.5959 22.2067 26.6012 22.3971 26.7212ZM12.3094 24.8317C11.6852 25.0614 11.3044 25.4372 11.1245 26.0061C11.0504 26.241 10.987 25.9957 10.987 25.4633V24.8943H9.08263V27.1127C9.08263 29.0179 9.07205 29.3572 8.998 29.5346C8.87633 29.8374 8.64358 29.8948 8.41083 29.6808C8.29445 29.5764 8.28916 29.5451 8.28916 28.6055C8.28916 28.0731 8.27329 27.0187 8.25213 26.2671L8.22039 24.8943H4.3218V27.2902C4.3218 29.5712 4.31651 29.6912 4.22129 29.806C4.13666 29.9104 4.07318 29.9313 3.88275 29.9209C3.7505 29.9157 3.58123 29.8739 3.50717 29.8269C3.24268 29.6547 3.21094 29.7225 3.21094 30.5211C3.21094 31.3615 3.20565 31.3563 3.73463 31.5233C4.88781 31.8835 6.00925 31.2623 6.22084 30.1401C6.27903 29.8426 6.31606 29.8008 6.35838 29.9887C6.43244 30.3123 6.56997 30.6203 6.76041 30.8709C7.01432 31.2049 7.22591 31.3406 7.76018 31.5285C8.1675 31.6695 9.13553 31.6695 9.60632 31.5233C10.2147 31.3354 10.7013 30.8604 10.8389 30.3332C10.9182 30.0096 11.0028 30.1349 11.0134 30.5942C11.0187 30.803 11.0293 31.0118 11.0293 31.0588C11.0399 31.1579 11.4419 31.3824 11.8651 31.5233C12.2724 31.6642 12.9759 31.6642 13.3991 31.5285C13.854 31.3824 14.0551 31.2675 14.3195 31.0066C14.6369 30.6934 14.7745 30.422 14.8856 29.8896C14.9702 29.4772 14.9702 29.4407 14.8803 29.0701C14.7269 28.4437 14.5364 28.214 13.3991 27.2275C13.1188 26.977 13.05 26.8935 13.05 26.7682C13.05 26.5594 13.2616 26.3558 13.4679 26.3558C13.6689 26.3558 14.1609 26.5333 14.3354 26.669C14.4941 26.7943 14.5788 26.7995 14.6581 26.6899C14.7163 26.6116 15.0072 26.5907 15.7214 26.6168C15.7901 26.6168 15.8007 26.9352 15.8113 29.0283L15.8271 31.445H17.7315L17.7473 29.0701C17.7526 27.6973 17.7791 26.6795 17.8108 26.6481C17.8373 26.622 18.0489 26.6064 18.2816 26.6116C18.6572 26.622 18.7101 26.6116 18.763 26.5176C18.7947 26.4498 18.8159 26.1314 18.8053 25.6668L18.7894 24.9204L16.774 24.9048C15.0284 24.8943 14.748 24.9048 14.6898 24.9726C14.6105 25.0666 14.4624 25.0718 14.3143 24.9935C13.8593 24.7534 12.7643 24.6647 12.3094 24.8317ZM11.1457 27.3789C11.1457 27.6086 11.5054 28.0418 12.2671 28.7204C12.7908 29.1901 12.9072 29.3728 12.8278 29.6025C12.7062 29.9418 12.2565 30.0096 11.7381 29.7591C11.3044 29.5451 11.0716 29.4146 11.0293 29.3572C10.9817 29.2945 10.9711 27.3267 11.0187 27.2797C11.0716 27.2327 11.1457 27.2902 11.1457 27.3789ZM31.2734 24.9622C31.2575 24.9935 31.2522 26.4707 31.2575 28.2349L31.2734 31.445L32.2414 31.4607L33.2042 31.4711V29.0596C33.2042 27.7286 33.2253 26.6168 33.2465 26.5803C33.273 26.5385 33.3153 26.5333 33.3629 26.5646C33.4052 26.5959 33.6644 26.6168 33.9289 26.6168H34.4208L34.4314 29.0283L34.4473 31.445L35.3677 31.4607C35.8755 31.4659 36.3093 31.4555 36.3358 31.4294C36.3622 31.4033 36.3834 30.3176 36.3781 28.997V26.6168H36.8224C37.4519 26.6168 37.4413 26.6325 37.4255 25.6877L37.4096 24.9204L34.3521 24.91C31.9717 24.8995 31.2893 24.91 31.2734 24.9622Z" fill="black"/>
<path d="M37.2297 29.5502C36.9917 29.6181 36.7642 29.7851 36.6267 30.0096C36.5368 30.1505 36.5156 30.2705 36.5156 30.5681C36.5156 30.9021 36.5315 30.97 36.6743 31.1683C36.8965 31.4815 37.1769 31.6277 37.5577 31.6277C37.9439 31.6277 38.2295 31.4919 38.4411 31.1996C38.5839 31.0065 38.5998 30.9491 38.5998 30.5628C38.5998 30.1453 38.5945 30.1348 38.3882 29.8947C38.0814 29.545 37.6741 29.4197 37.2297 29.5502Z" fill="black"/>
</g>
<defs>
<clipPath id="clip0_335_999">
<rect width="47" height="32" fill="white"/>
</clipPath>
</defs>
</svg>
